<svg width="360" height="190" viewBox="0 0 360 190" fill="none" xmlns="http://www.w3.org/2000/svg">
<path d="M257.84 189.042C251.31 189.042 244.586 188.501 237.686 187.323C221.822 184.606 206.265 178.875 192.032 170.636C182.479 173.801 172.263 176.533 161.405 178.831C109.976 189.719 44.9043 190.4 -32 180.862L-27.6859 146.071C45.3523 155.128 106.529 154.612 154.145 144.532C155.591 144.226 157.008 143.914 158.41 143.593C141.573 124.983 131.873 103.256 130.86 81.5005C130.154 66.2891 134.766 49.651 143.516 35.8517C154.408 18.6731 170.666 7.0649 190.528 2.28821C211.913 -2.85368 233.265 0.734924 250.643 12.4016C268.757 24.56 281.1 44.217 284.504 66.3329C287.746 87.4117 278.373 111.636 259.432 131.142C252.401 138.383 244.221 144.951 234.915 150.838C237.803 151.622 240.705 152.26 243.597 152.757C297.178 161.93 340.056 114.752 344.77 109.343C351.441 101.688 357.157 93.1039 361.768 83.8377L393.16 99.4484C387.22 111.388 379.833 122.465 371.205 132.374C362.314 142.58 318.476 189.037 257.835 189.037L257.84 189.042ZM209.581 35.0531C206.056 35.0531 202.423 35.4962 198.723 36.3824C173.602 42.4251 165.242 66.2696 165.875 79.8791C166.6 95.4946 175.097 111.724 189.802 125.581C191.954 127.612 194.214 129.56 196.556 131.41C215.288 123.283 227.047 114.173 234.283 106.728C247.624 92.9919 251.072 79.6113 249.854 71.6745C247.965 59.404 240.958 48.1318 231.113 41.5243C224.719 37.2345 217.411 35.058 209.586 35.058L209.581 35.0531Z" fill="#6C49D0"/>
<path d="M259.432 131.148C252.527 138.262 244.503 144.733 235.393 150.537C235.393 150.537 235.378 150.542 235.368 150.552C232.354 152.149 228.001 154.423 223.487 156.668C222.704 157.057 221.915 157.447 221.131 157.831L220.921 157.748L220.8 157.992C219.792 158.484 218.794 158.966 217.81 159.433C215.926 160.324 214.1 161.157 212.425 161.878C205.306 164.94 196.746 168.612 191.974 170.657H191.969C182.43 173.807 172.239 176.539 161.405 178.832C109.976 189.72 44.9043 190.406 -32 180.868L-27.6859 146.072C45.3523 155.134 106.529 154.613 154.145 144.533C154.72 144.412 155.289 144.29 155.854 144.168C161.113 143.379 168.685 141.768 178.525 138.539C186.998 135.759 192.714 133.295 196.507 131.362C196.527 131.377 196.541 131.391 196.561 131.406C215.293 123.279 227.052 114.169 234.283 106.724C247.624 92.988 251.076 79.6123 249.854 71.6706C247.965 59.4002 240.958 48.128 231.108 41.5204C224.715 37.2307 217.406 35.0541 209.581 35.0541C206.056 35.0541 202.428 35.4924 198.728 36.3834C173.607 42.4261 165.247 66.2706 165.88 79.8801C166.474 92.6325 172.249 105.799 182.357 117.743C178.472 119.17 174.089 120.777 169.566 122.442L167.677 123.133C160.942 125.617 154.004 128.178 148.01 130.393C137.595 115.06 131.64 98.2906 130.86 81.5064C130.154 66.2999 134.766 49.6618 143.516 35.8624C154.408 18.679 170.666 7.07564 190.528 2.29895C211.913 -2.84294 233.265 0.745671 250.648 12.4123C268.761 24.5658 281.1 44.2229 284.504 66.3437C287.746 87.4176 278.373 111.647 259.432 131.148Z" fill="url(#paint0_linear_357_290)"/>
<path d="M25.9821 171.561L27.0046 156.185L16.1609 155.464L15.0848 162.724C14.8998 163.97 14.6953 165.046 14.4761 165.942C14.257 166.838 14.0233 167.588 13.7701 168.202C13.5218 168.81 13.2589 169.312 12.9764 169.701C12.6989 170.091 12.4067 170.403 12.1048 170.641L10.683 170.544L10.3081 176.207L12.4262 176.348L12.6697 172.628L25.6559 173.49L25.4075 177.21L27.5354 177.351L27.9103 171.693L25.9821 171.561ZM23.7763 171.415L14.6514 170.812C15.0653 170.393 15.4354 169.794 15.7568 169.01C16.0781 168.226 16.3605 167.306 16.6089 166.259C16.8572 165.207 17.0763 164.077 17.2565 162.87L18.055 157.538L24.6674 157.981L23.7763 171.415Z" fill="white"/>
<path d="M41.5001 164.492C41.208 163.65 40.8038 162.963 40.278 162.428C39.7521 161.897 39.158 161.502 38.5007 161.244C37.8385 160.986 37.1617 160.84 36.4702 160.811C35.2919 160.757 34.2499 161.001 33.3442 161.536C32.4385 162.072 31.7227 162.837 31.1969 163.83C30.671 164.828 30.3788 165.992 30.3204 167.326C30.262 168.66 30.4568 169.838 30.9047 170.861C31.3527 171.884 32.0198 172.697 32.9108 173.296C33.797 173.895 34.8682 174.221 36.1245 174.274C37.0156 174.313 37.8239 174.211 38.5445 173.963C39.27 173.714 39.8835 173.349 40.3851 172.877C40.8866 172.4 41.2518 171.84 41.4855 171.197L39.4843 170.549C39.2992 170.988 39.0509 171.348 38.7344 171.63C38.4228 171.918 38.0479 172.127 37.6242 172.254C37.2006 172.385 36.7283 172.434 36.217 172.414C35.4282 172.38 34.7368 172.176 34.1525 171.806C33.5682 171.431 33.1202 170.905 32.8183 170.218C32.5408 169.6 32.4093 168.87 32.4142 168.022L41.8166 168.436L41.8556 167.565C41.9043 166.362 41.7874 165.339 41.5001 164.492ZM33.0034 164.604C33.3247 164 33.7776 163.518 34.3521 163.158C34.9267 162.802 35.6035 162.637 36.3874 162.671C37.1714 162.705 37.819 162.924 38.3303 163.323C38.8415 163.723 39.2165 164.258 39.4551 164.935C39.6304 165.437 39.7326 165.982 39.7618 166.576L32.5018 166.255C32.5651 165.666 32.7307 165.115 33.0034 164.604Z" fill="white"/>
<path d="M46.0524 161.336L45.6823 167.13C45.6093 168.216 45.5217 169.102 45.4145 169.794C45.3123 170.48 45.1711 171.016 45.0007 171.391C44.8254 171.766 44.6111 172.024 44.3531 172.165C44.0901 172.311 43.7736 172.374 43.3889 172.365L42.9264 172.355L42.8777 174.288L43.5886 174.303C44.5527 174.327 45.3172 174.103 45.8771 173.636C46.4419 173.168 46.8607 172.452 47.1334 171.493C47.4109 170.534 47.5959 169.336 47.6933 167.9L48.0001 163.318L52.6794 163.425L52.4165 174.512L54.5248 174.566L54.8365 161.54L46.0524 161.336Z" fill="white"/>
<path d="M67.3605 163.605C67.0245 162.997 66.6009 162.534 66.0847 162.222C65.5686 161.911 65.033 161.701 64.4779 161.594C63.9228 161.487 63.4261 161.434 62.9928 161.434C62.3257 161.434 61.6489 161.526 60.9672 161.711C60.2806 161.891 59.6574 162.208 59.0877 162.656C58.518 163.099 58.0651 163.717 57.734 164.511L59.745 165.178C59.8862 164.876 60.0956 164.579 60.3731 164.287C60.6458 163.995 61.0061 163.756 61.4492 163.561C61.8923 163.367 62.4279 163.274 63.0463 163.274C63.6647 163.274 64.1565 163.376 64.5607 163.581C64.9648 163.785 65.2667 164.073 65.4663 164.453C65.6708 164.827 65.7682 165.29 65.7682 165.831V165.904C65.7682 166.22 65.6465 166.444 65.4128 166.575C65.1742 166.707 64.809 166.799 64.3221 166.853C63.8303 166.907 63.1973 166.985 62.4231 167.082C61.8144 167.16 61.2106 167.262 60.6166 167.394C60.0177 167.525 59.4723 167.725 58.9757 167.988C58.4839 168.255 58.0895 168.621 57.7924 169.088C57.4954 169.555 57.3445 170.159 57.3445 170.904C57.3445 171.761 57.5392 172.487 57.9337 173.086C58.3281 173.685 58.8637 174.137 59.5356 174.449C60.2027 174.761 60.9526 174.921 61.7755 174.921C62.5107 174.921 63.1437 174.814 63.6647 174.6C64.1857 174.386 64.6093 174.113 64.9356 173.792C65.2618 173.47 65.5004 173.159 65.6465 172.857H65.7877V174.629L67.8474 174.634L67.862 166.045C67.8668 165.027 67.7013 164.214 67.3605 163.605ZM65.7585 169.921C65.7585 170.451 65.6173 170.958 65.3349 171.44C65.0573 171.927 64.6483 172.316 64.1078 172.618C63.5722 172.92 62.9149 173.071 62.1407 173.071C61.6197 173.071 61.1571 172.988 60.7529 172.832C60.3488 172.677 60.0323 172.448 59.7986 172.146C59.5697 171.839 59.4528 171.464 59.4528 171.016C59.4528 170.515 59.5892 170.125 59.8521 169.833C60.1151 169.541 60.4705 169.322 60.9087 169.171C61.347 169.02 61.8193 168.913 62.3257 168.854C62.5253 168.83 62.798 168.796 63.1437 168.757C63.4894 168.713 63.8497 168.664 64.2198 168.601C64.585 168.543 64.9161 168.47 65.2034 168.387C65.4907 168.309 65.6757 168.216 65.7634 168.114V169.921H65.7585Z" fill="white"/>
<path d="M79.3385 171.961C79.0415 172.268 78.686 172.497 78.2673 172.652C77.8534 172.808 77.3908 172.891 76.8747 172.905C76.0859 172.92 75.3847 172.764 74.776 172.428C74.1674 172.097 73.6853 171.601 73.3396 170.933C73.0231 170.33 72.8478 169.609 72.7943 168.772L82.2016 168.572L82.187 167.7C82.1578 166.498 81.9776 165.48 81.6319 164.657C81.2862 163.834 80.8382 163.172 80.2783 162.675C79.7183 162.179 79.1048 161.823 78.4279 161.609C77.7511 161.395 77.0646 161.292 76.3731 161.307C75.1948 161.331 74.1723 161.643 73.3007 162.237C72.4339 162.831 71.7669 163.639 71.3092 164.667C70.8466 165.694 70.6323 166.877 70.6616 168.212C70.6859 169.546 70.9586 170.709 71.4747 171.703C71.986 172.691 72.7066 173.456 73.6318 173.996C74.5569 174.537 75.6476 174.795 76.9039 174.766C77.7949 174.751 78.5984 174.59 79.2995 174.298C80.0056 174.001 80.5947 173.602 81.0622 173.095C81.5345 172.589 81.8656 172.005 82.0506 171.347L80.0153 170.831C79.8595 171.279 79.6355 171.654 79.3385 171.961ZM73.1643 165.319C73.4419 164.696 73.8606 164.185 74.4108 163.79C74.9611 163.396 75.6281 163.187 76.417 163.172C77.2009 163.157 77.8583 163.328 78.3939 163.693C78.9295 164.063 79.3385 164.574 79.6209 165.232C79.8303 165.719 79.9666 166.254 80.0299 166.848L72.7651 167.004C72.7894 166.415 72.9257 165.85 73.1643 165.319Z" fill="white"/>
<path d="M99.2107 160.533L96.0214 160.699L93.4602 168.042C93.2995 168.509 93.1583 168.942 93.0366 169.351C92.9197 169.755 92.8174 170.145 92.7298 170.515C92.6421 170.885 92.5691 171.241 92.501 171.581C92.4815 171.684 92.462 171.786 92.4425 171.888C92.4084 171.776 92.3743 171.669 92.3403 171.557C92.2331 171.216 92.1212 170.871 91.9946 170.52C91.8728 170.165 91.7316 169.799 91.5709 169.41C91.4103 169.02 91.2252 168.606 91.0158 168.163L87.6804 161.127L84.5398 161.288L85.2069 174.298L87.2909 174.191L86.9403 167.394C86.916 166.936 86.8916 166.474 86.8624 166.006C86.8381 165.539 86.804 165.071 86.7748 164.604C86.7455 164.141 86.7115 163.684 86.6774 163.245C86.6725 163.206 86.6725 163.163 86.6676 163.124C86.7504 163.377 86.8332 163.62 86.916 163.854C87.1107 164.409 87.325 164.959 87.5538 165.505C87.7876 166.045 88.0602 166.654 88.3865 167.321L91.605 173.967L93.4456 173.875L95.9337 166.931C96.1869 166.23 96.4012 165.592 96.5716 165.027C96.7469 164.463 96.8979 163.898 97.0342 163.328C97.1024 163.031 97.1754 162.719 97.2484 162.383C97.2533 162.534 97.2582 162.681 97.263 162.827C97.2777 163.284 97.2971 163.742 97.3117 164.19C97.3263 164.643 97.3409 165.086 97.3604 165.529C97.3799 165.972 97.3994 166.415 97.4237 166.858L97.7743 173.651L99.8778 173.544L99.2107 160.533Z" fill="white"/>
<path d="M119.037 158.741L108.744 159.773L110.044 172.73L112.143 172.521L111.032 161.487L117.143 160.874L118.249 171.908L120.337 171.698L119.037 158.741Z" fill="white"/>
<path d="M134.658 163.289C134.473 161.926 134.078 160.777 133.474 159.847C132.876 158.912 132.126 158.23 131.235 157.806C130.344 157.378 129.355 157.237 128.279 157.383C127.442 157.5 126.794 157.729 126.341 158.074C125.883 158.415 125.552 158.78 125.338 159.165C125.124 159.555 124.958 159.871 124.841 160.119L124.613 160.153L124.33 158.089L122.324 158.362L124.734 176.09L126.813 175.808L125.883 168.986L126.049 168.962C126.224 169.181 126.473 169.454 126.794 169.775C127.11 170.096 127.539 170.364 128.075 170.574C128.615 170.788 129.292 170.837 130.11 170.729C131.186 170.578 132.096 170.179 132.841 169.522C133.586 168.864 134.122 168.003 134.448 166.936C134.775 165.875 134.843 164.657 134.658 163.289ZM132.467 166.06C132.291 166.834 131.965 167.477 131.478 167.983C130.996 168.49 130.353 168.801 129.545 168.913C128.766 169.015 128.079 168.899 127.48 168.563C126.882 168.227 126.395 167.71 126.015 167.014C125.64 166.323 125.387 165.5 125.255 164.545C125.129 163.591 125.148 162.739 125.328 161.989C125.504 161.239 125.835 160.631 126.317 160.158C126.804 159.681 127.442 159.394 128.23 159.282C129.048 159.175 129.754 159.292 130.358 159.642C130.957 159.993 131.439 160.509 131.809 161.191C132.174 161.872 132.418 162.661 132.54 163.552C132.661 164.453 132.637 165.29 132.467 166.06Z" fill="white"/>
<path d="M148.91 160.859C148.672 159.52 148.219 158.395 147.552 157.485C146.885 156.574 146.062 155.922 145.088 155.527C144.109 155.133 143.038 155.041 141.865 155.245C140.706 155.454 139.732 155.912 138.958 156.618C138.179 157.324 137.633 158.22 137.322 159.301C137.01 160.387 136.971 161.599 137.21 162.938C137.443 164.253 137.896 165.363 138.558 166.269C139.225 167.179 140.048 167.832 141.022 168.226C141.991 168.621 143.062 168.713 144.221 168.509C145.395 168.299 146.369 167.842 147.153 167.136C147.932 166.43 148.477 165.534 148.793 164.453C149.105 163.372 149.144 162.174 148.91 160.859ZM146.836 163.644C146.7 164.414 146.388 165.071 145.911 165.616C145.429 166.157 144.757 166.508 143.895 166.658C143.038 166.814 142.298 166.717 141.665 166.371C141.037 166.025 140.526 165.514 140.126 164.837C139.732 164.165 139.459 163.406 139.308 162.563C139.157 161.706 139.152 160.893 139.289 160.119C139.425 159.345 139.732 158.688 140.204 158.142C140.677 157.597 141.339 157.246 142.196 157.095C143.058 156.94 143.807 157.037 144.445 157.388C145.083 157.733 145.604 158.249 145.999 158.931C146.398 159.613 146.671 160.382 146.821 161.229C146.972 162.072 146.977 162.875 146.836 163.644Z" fill="white"/>
<path d="M161.015 160.698C161.001 161.058 160.928 161.404 160.806 161.735C160.679 162.066 160.504 162.368 160.27 162.636C160.042 162.909 159.764 163.142 159.433 163.332C159.102 163.527 158.722 163.673 158.298 163.766C157.451 163.955 156.701 163.892 156.059 163.576C155.416 163.259 154.88 162.772 154.457 162.115C154.028 161.458 153.721 160.713 153.536 159.88C153.346 159.028 153.303 158.215 153.405 157.436C153.512 156.657 153.785 155.985 154.233 155.42C154.681 154.855 155.328 154.475 156.175 154.285C156.594 154.193 156.989 154.163 157.359 154.193C157.734 154.227 158.079 154.31 158.391 154.451C158.707 154.592 158.99 154.777 159.238 155.006C159.486 155.24 159.696 155.507 159.861 155.814L161.702 154.816C161.405 154.3 161.045 153.862 160.621 153.501C160.197 153.136 159.725 152.854 159.209 152.659C158.688 152.459 158.138 152.342 157.558 152.303C156.979 152.269 156.38 152.318 155.766 152.454C154.612 152.712 153.663 153.214 152.918 153.954C152.173 154.694 151.667 155.61 151.404 156.71C151.141 157.806 151.16 159.018 151.457 160.343C151.749 161.647 152.246 162.738 152.952 163.615C153.658 164.491 154.505 165.105 155.494 165.455C156.487 165.806 157.558 165.854 158.707 165.596C159.331 165.455 159.9 165.246 160.416 164.959C160.933 164.671 161.385 164.321 161.765 163.902C162.15 163.488 162.462 163.021 162.69 162.504C162.919 161.983 163.056 161.423 163.095 160.82L161.015 160.698Z" fill="white"/>
<path d="M173.008 150.166L172.516 148.359L162.237 151.14L162.729 152.951L166.868 151.831L169.784 162.592L171.805 162.042L168.888 151.281L173.008 150.166Z" fill="white"/>
<path d="M186.739 150.717C186.32 149.422 185.716 148.37 184.927 147.562C184.143 146.749 183.238 146.218 182.215 145.96C181.193 145.707 180.116 145.76 178.987 146.13C177.867 146.495 176.966 147.08 176.294 147.888C175.622 148.691 175.203 149.656 175.048 150.775C174.887 151.89 175.018 153.098 175.437 154.388C175.851 155.659 176.45 156.696 177.234 157.505C178.018 158.313 178.919 158.844 179.941 159.097C180.959 159.355 182.03 159.301 183.15 158.936C184.28 158.571 185.185 157.982 185.862 157.174C186.539 156.365 186.958 155.406 187.118 154.291C187.279 153.176 187.152 151.988 186.739 150.717ZM184.421 155.839C184.022 156.443 183.408 156.881 182.571 157.154C181.743 157.422 180.993 157.427 180.326 157.174C179.654 156.915 179.074 156.482 178.588 155.869C178.105 155.255 177.731 154.544 177.463 153.731C177.195 152.903 177.078 152.095 177.107 151.311C177.136 150.522 177.351 149.831 177.74 149.222C178.13 148.618 178.738 148.18 179.566 147.912C180.404 147.645 181.158 147.635 181.84 147.893C182.517 148.151 183.101 148.589 183.588 149.208C184.08 149.831 184.455 150.551 184.723 151.369C184.986 152.183 185.103 152.981 185.068 153.76C185.039 154.544 184.825 155.236 184.421 155.839Z" fill="white"/>
<path d="M201.05 148.769L198.957 148.997C198.971 149.47 198.893 149.903 198.723 150.293C198.552 150.682 198.299 151.023 197.963 151.315C197.627 151.607 197.223 151.851 196.746 152.041C196.011 152.333 195.3 152.43 194.613 152.333C193.927 152.235 193.303 151.934 192.743 151.437C192.237 150.984 191.818 150.375 191.477 149.601L200.213 146.115L199.891 145.302C199.443 144.187 198.918 143.3 198.304 142.648C197.695 142 197.043 141.538 196.342 141.27C195.646 140.997 194.944 140.88 194.233 140.919C193.527 140.953 192.851 141.1 192.208 141.358C191.112 141.796 190.26 142.443 189.656 143.305C189.048 144.162 188.712 145.156 188.644 146.28C188.571 147.405 188.785 148.584 189.277 149.825C189.773 151.067 190.435 152.06 191.263 152.81C192.096 153.555 193.036 154.022 194.092 154.203C195.144 154.383 196.259 154.242 197.428 153.774C198.255 153.443 198.952 153.015 199.507 152.494C200.062 151.973 200.471 151.388 200.734 150.75C200.997 150.108 201.104 149.45 201.05 148.769ZM190.606 146.241C190.655 145.56 190.864 144.937 191.239 144.372C191.619 143.807 192.169 143.378 192.899 143.086C193.63 142.799 194.306 142.731 194.939 142.882C195.568 143.038 196.128 143.373 196.624 143.89C196.989 144.274 197.306 144.732 197.574 145.263L190.825 147.955C190.64 147.391 190.567 146.821 190.606 146.241Z" fill="white"/>
<path d="M215.175 130.495L213.33 131.493L215.886 136.216L216.806 137.916L219.533 142.945L221.379 141.947L215.175 130.495ZM216.31 135.987L215.886 136.216L210.467 139.152L210.028 139.391L210.949 141.09L211.387 140.852L216.806 137.916L217.23 137.687L216.31 135.987ZM211.387 140.852L210.467 139.152L207.91 134.429L206.07 135.427L212.268 146.88L214.114 145.882L211.387 140.852Z" fill="white"/>
<path d="M232.568 131.036L230.577 131.707C230.689 132.165 230.704 132.603 230.621 133.022C230.533 133.441 230.363 133.826 230.095 134.181C229.832 134.541 229.486 134.863 229.058 135.15C228.405 135.593 227.728 135.837 227.037 135.89C226.346 135.939 225.674 135.778 225.021 135.408C224.432 135.072 223.887 134.566 223.395 133.884L231.19 128.62L230.704 127.9C230.032 126.902 229.326 126.147 228.59 125.64C227.855 125.134 227.115 124.822 226.38 124.71C225.64 124.594 224.929 124.628 224.242 124.813C223.56 125.003 222.927 125.285 222.358 125.675C221.379 126.332 220.683 127.15 220.274 128.119C219.865 129.088 219.748 130.13 219.918 131.24C220.089 132.355 220.546 133.465 221.291 134.571C222.041 135.681 222.898 136.509 223.867 137.064C224.836 137.619 225.854 137.872 226.925 137.828C227.996 137.779 229.053 137.404 230.095 136.698C230.835 136.202 231.419 135.637 231.853 135.004C232.286 134.376 232.564 133.723 232.685 133.042C232.802 132.36 232.768 131.693 232.568 131.036ZM222.051 128.825C222.299 128.192 222.747 127.656 223.4 127.218C224.047 126.78 224.7 126.57 225.347 126.585C225.995 126.605 226.618 126.809 227.212 127.213C227.651 127.505 228.055 127.885 228.43 128.348L222.406 132.418C222.104 131.907 221.915 131.362 221.832 130.787C221.73 130.11 221.803 129.458 222.051 128.825Z" fill="white"/>
<path d="M244.201 123.103C244.123 122.475 243.865 121.911 243.427 121.404C242.989 120.893 242.502 120.552 241.971 120.391C241.436 120.231 240.905 120.192 240.374 120.284C239.843 120.377 239.366 120.562 238.938 120.834C239.425 120.211 239.697 119.583 239.761 118.95C239.819 118.312 239.6 117.708 239.108 117.129C238.422 116.335 237.56 115.97 236.513 116.029C235.466 116.092 234.409 116.584 233.333 117.504L229.292 120.971L237.769 130.86L242.439 126.853C243.115 126.273 243.602 125.66 243.89 125.012C244.182 124.365 244.284 123.732 244.201 123.103ZM232.048 121.122L234.58 118.955C235.174 118.444 235.739 118.161 236.279 118.103C236.82 118.044 237.263 118.225 237.618 118.634C237.983 119.062 238.105 119.539 237.978 120.075C237.857 120.61 237.496 121.136 236.897 121.648L234.361 123.819L232.048 121.122ZM242.078 124.019C241.996 124.506 241.703 124.968 241.197 125.407L238.037 128.109L235.505 125.158L238.665 122.451C239.171 122.018 239.688 121.818 240.223 121.852C240.754 121.886 241.236 122.159 241.669 122.665C242.025 123.079 242.161 123.527 242.078 124.019Z" fill="white"/>
<path d="M254.319 112.78C254.261 112.089 254.056 111.456 253.701 110.872L251.943 112.026C252.167 112.44 252.289 112.858 252.313 113.282C252.337 113.71 252.269 114.129 252.104 114.538C251.933 114.952 251.68 115.351 251.344 115.736C250.818 116.33 250.229 116.739 249.572 116.963C248.914 117.187 248.223 117.202 247.497 117.007C246.85 116.832 246.197 116.481 245.545 115.94L251.758 108.88L251.101 108.306C250.2 107.512 249.328 106.962 248.491 106.655C247.648 106.353 246.859 106.236 246.114 106.309C245.369 106.387 244.693 106.601 244.074 106.952C243.461 107.307 242.92 107.741 242.467 108.262C241.684 109.143 241.221 110.107 241.07 111.149C240.919 112.191 241.065 113.228 241.508 114.265C241.956 115.298 242.677 116.257 243.68 117.138C244.683 118.02 245.725 118.609 246.801 118.901C247.882 119.193 248.929 119.179 249.951 118.867C250.974 118.55 251.904 117.922 252.737 116.978C253.326 116.306 253.749 115.609 254.007 114.894C254.27 114.173 254.373 113.472 254.319 112.78ZM243.247 113.34C242.979 112.712 242.886 112.06 242.964 111.383C243.047 110.711 243.344 110.078 243.865 109.489C244.381 108.904 244.956 108.534 245.589 108.388C246.222 108.237 246.874 108.286 247.551 108.525C248.052 108.695 248.539 108.963 249.017 109.318L244.215 114.772C243.797 114.353 243.475 113.876 243.247 113.34Z" fill="white"/>
<path d="M258.389 105.905L258.472 105.764C258.754 105.764 259.12 105.735 259.573 105.686C260.02 105.642 260.498 105.472 260.999 105.185C261.501 104.897 261.963 104.401 262.387 103.695C262.942 102.76 263.195 101.796 263.146 100.802C263.098 99.8091 262.762 98.8547 262.134 97.9345C261.506 97.019 260.6 96.2059 259.412 95.495C258.229 94.7889 257.089 94.3799 255.984 94.2679C254.879 94.1559 253.88 94.3166 252.989 94.7451C252.098 95.1785 251.378 95.8602 250.818 96.795C250.384 97.5206 250.16 98.1682 250.146 98.7379C250.131 99.3076 250.204 99.7994 250.375 100.208C250.54 100.613 250.686 100.944 250.813 101.187L250.691 101.387L248.904 100.315L247.862 102.059L263.224 111.237L264.3 109.436L258.389 105.905ZM256.933 104.571C256.154 104.435 255.351 104.118 254.528 103.627C253.7 103.13 253.048 102.58 252.575 101.976C252.098 101.372 251.826 100.729 251.757 100.057C251.689 99.3855 251.865 98.7038 252.274 98.0172C252.697 97.3112 253.228 96.8291 253.876 96.5808C254.523 96.3276 255.229 96.2741 255.994 96.4104C256.758 96.5516 257.523 96.8535 258.297 97.3161C259.076 97.7786 259.714 98.324 260.21 98.9375C260.707 99.5559 260.999 100.213 261.097 100.91C261.194 101.601 261.033 102.302 260.615 102.998C260.21 103.675 259.689 104.138 259.051 104.396C258.414 104.654 257.708 104.712 256.933 104.571Z" fill="white"/>
<path d="M269.15 85.367C268.868 84.3542 268.313 83.4631 267.49 82.6987C266.667 81.9293 265.611 81.3596 264.335 80.975C263.03 80.5854 261.822 80.4832 260.707 80.6731C259.597 80.8581 258.643 81.2963 257.854 81.9926C257.06 82.6889 256.495 83.6092 256.155 84.7437C255.819 85.8782 255.789 86.9495 256.072 87.9623C256.349 88.9751 256.904 89.8613 257.737 90.6306C258.565 91.3951 259.631 91.9745 260.931 92.3592C262.212 92.7438 263.405 92.8412 264.515 92.6513C265.625 92.4663 266.575 92.0281 267.368 91.3366C268.157 90.6403 268.722 89.7298 269.058 88.6001C269.399 87.4607 269.428 86.3847 269.15 85.367ZM267.261 88.0645C267.013 88.8972 266.594 89.5156 266 89.9246C265.411 90.3287 264.724 90.5576 263.94 90.6111C263.161 90.6598 262.363 90.5624 261.54 90.319C260.707 90.0706 259.977 89.7103 259.349 89.238C258.721 88.7657 258.268 88.196 257.99 87.5338C257.718 86.8667 257.703 86.1168 257.951 85.2842C258.205 84.4418 258.628 83.8137 259.227 83.3998C259.821 82.9859 260.517 82.7571 261.306 82.7084C262.09 82.6597 262.898 82.762 263.726 83.0054C264.544 83.2538 265.265 83.6092 265.893 84.0815C266.516 84.549 266.964 85.1235 267.232 85.7955C267.505 86.4674 267.514 87.2222 267.261 88.0645Z" fill="white"/>
<path d="M271.166 74.542L266.02 72.0636L264.963 71.5523L265.182 73.8847L265.893 74.2352L271.395 76.9425L271.166 74.542ZM266 71.7812L265.708 68.699L270.567 68.2364L270.373 66.1572L257.406 67.3891L257.898 72.5505C258.058 74.2596 258.56 75.4964 259.407 76.2511C260.25 77.0107 261.277 77.3321 262.48 77.2201C263.682 77.1032 264.608 76.5968 265.265 75.696C265.557 75.2919 265.771 74.8049 265.893 74.2352C266.039 73.612 266.083 72.8865 266.02 72.0636C266.02 71.9711 266.01 71.8785 266 71.7812ZM263.872 74.2401C263.527 74.766 262.996 75.063 262.285 75.1312C261.564 75.1993 260.98 75.0095 260.532 74.5615C260.084 74.1135 259.807 73.3296 259.699 72.2145L259.422 69.293L263.955 68.8645L264.238 71.8104C264.345 72.9059 264.218 73.7191 263.872 74.2401Z" fill="white"/>
<path d="M267.607 57.3548L266.862 55.3925L256.437 59.3512L254.923 55.3682L253.17 56.0304L256.953 65.9879L258.706 65.3208L257.182 61.3135L267.607 57.3548Z" fill="white"/>
<path d="M257.139 48.5168L253.682 43.4139L253.414 43.0195L251.812 44.1005L252.08 44.4949L255.537 49.5978L255.819 50.0166L257.421 48.9307L257.139 48.5168ZM261.872 45.308L257.139 48.5168L255.537 49.5978L251.091 52.6118L252.27 54.3502L263.05 47.0415L261.872 45.308ZM257.241 38.4668L246.456 45.7755L247.634 47.5089L252.08 44.4949L253.682 43.4139L258.415 40.2051L257.241 38.4668Z" fill="white"/>
<path d="M248.607 29.785C247.813 29.1325 247.025 28.7332 246.241 28.5774C245.457 28.4216 244.717 28.4703 244.03 28.7284C243.339 28.9913 242.749 29.4247 242.253 30.0284C241.741 30.6468 241.435 31.3139 241.323 32.0248C241.211 32.7406 241.318 33.4564 241.644 34.1819C241.965 34.9123 242.525 35.5988 243.319 36.2464L245.958 38.4132L243.003 42.0262L244.624 43.3506L252.872 33.2713L248.607 29.785ZM244.551 34.7418C243.957 34.2549 243.601 33.6901 243.485 33.0474C243.368 32.4046 243.524 31.8252 243.952 31.2993C244.356 30.8026 244.882 30.5494 245.525 30.5494C246.168 30.5494 246.791 30.7929 247.385 31.2798L250.024 33.4418L247.195 36.9038L244.551 34.7418ZM242.126 24.4775L233.878 34.5568L235.499 35.8861L243.748 25.8068L242.126 24.4775Z" fill="white"/>
<path d="M233.625 20.0462L231.424 26.4833C231.273 26.9167 231.127 27.3598 230.976 27.8029C230.83 28.2508 230.684 28.6939 230.538 29.137C230.396 29.5801 230.255 30.0135 230.124 30.4371C230.114 30.4761 230.099 30.5102 230.09 30.5442C230.104 30.2764 230.119 30.0232 230.128 29.7798C230.153 29.1906 230.158 28.6014 230.148 28.0122C230.138 27.4231 230.104 26.756 230.055 26.0159L229.534 18.6488L227.796 18.0547L222.903 23.5667C222.406 24.1315 221.973 24.6428 221.603 25.1005C221.232 25.5582 220.877 26.0305 220.541 26.5028C220.366 26.7511 220.186 27.0141 219.991 27.2965C220.044 27.1553 220.093 27.0189 220.142 26.8826C220.298 26.4541 220.453 26.0256 220.604 25.602C220.76 25.1784 220.906 24.7596 221.057 24.3409C221.203 23.9221 221.349 23.5034 221.491 23.0846L223.696 16.6475L221.7 15.9658L217.483 28.2898L220.502 29.3221L225.61 23.4595C225.936 23.0895 226.228 22.734 226.491 22.4029C226.754 22.0669 226.993 21.7456 227.207 21.4339C227.426 21.1223 227.631 20.8204 227.82 20.5283C227.879 20.4406 227.932 20.3578 227.986 20.2702C227.976 20.3871 227.967 20.4991 227.957 20.6159C227.932 20.9714 227.908 21.3317 227.894 21.7066C227.874 22.0767 227.869 22.476 227.874 22.8947C227.879 23.3135 227.894 23.7663 227.923 24.2532L228.405 32.0293L231.38 33.047L235.597 20.723L233.625 20.0462Z" fill="white"/>
<path d="M214.416 11.126L212.079 17.5631L214.47 17.7578L216.018 11.2526L214.416 11.126Z" fill="white"/>
<path d="M200.689 21.7843C200.411 20.4745 199.924 19.3789 199.228 18.4976C198.532 17.6114 197.69 16.9881 196.706 16.6278C195.717 16.2626 194.646 16.2042 193.492 16.4525C192.869 16.584 192.299 16.7885 191.778 17.0709C191.257 17.3533 190.804 17.699 190.415 18.1129C190.025 18.5219 189.714 18.9894 189.48 19.5007C189.241 20.0168 189.1 20.5768 189.056 21.1805L191.136 21.3217C191.155 20.9614 191.228 20.6157 191.355 20.2895C191.486 19.9584 191.666 19.6613 191.895 19.3935C192.129 19.1257 192.411 18.8969 192.747 18.707C193.078 18.5171 193.458 18.3759 193.882 18.2882C194.734 18.1032 195.479 18.1762 196.122 18.5025C196.759 18.8238 197.29 19.3205 197.709 19.9778C198.128 20.6401 198.425 21.3899 198.605 22.2274C198.785 23.0747 198.819 23.8927 198.707 24.6669C198.595 25.446 198.313 26.1179 197.86 26.6779C197.407 27.2378 196.755 27.6079 195.903 27.7881C195.489 27.8806 195.089 27.9049 194.719 27.8708C194.344 27.8319 194.004 27.7442 193.692 27.5982C193.375 27.4569 193.098 27.267 192.85 27.0333C192.601 26.7996 192.397 26.5318 192.236 26.225L190.386 27.1989C190.678 27.7199 191.033 28.1581 191.452 28.5282C191.871 28.8934 192.338 29.1806 192.854 29.3852C193.371 29.5897 193.921 29.7114 194.5 29.7552C195.08 29.799 195.679 29.7552 196.292 29.6237C197.451 29.3803 198.405 28.8885 199.155 28.1581C199.91 27.4277 200.426 26.5123 200.699 25.4167C200.976 24.3212 200.971 23.1136 200.689 21.7843Z" fill="white"/>
<path d="M185.166 26.7269C184.684 25.7482 184.324 24.9351 184.071 24.2826C183.818 23.635 183.676 23.1042 183.638 22.6903C183.599 22.2765 183.657 21.9454 183.813 21.6922C183.969 21.4438 184.212 21.2247 184.548 21.0446L184.957 20.8206L184.032 19.1212L183.409 19.4621C182.561 19.9198 182.011 20.4943 181.758 21.1809C181.5 21.8675 181.495 22.6952 181.734 23.6642C181.972 24.6332 182.406 25.7677 183.039 27.058L185.054 31.1871L180.935 33.4221L175.647 23.6739L173.792 24.677L180.005 36.1245L187.728 31.937L185.166 26.7269Z" fill="white"/>
<path d="M175.364 35.9296C174.975 34.8681 174.288 33.8699 173.305 32.935C172.336 32.0147 171.318 31.3817 170.242 31.0458C169.166 30.7098 168.124 30.6708 167.106 30.9289C166.083 31.187 165.168 31.7421 164.355 32.599C163.537 33.4609 163.021 34.4055 162.807 35.4378C162.597 36.4701 162.685 37.517 163.074 38.5736C163.464 39.6302 164.141 40.6186 165.11 41.5389C166.093 42.4738 167.121 43.1117 168.197 43.4525C169.278 43.7934 170.325 43.8323 171.347 43.5694C172.365 43.3113 173.285 42.7465 174.108 41.8895C174.921 41.0325 175.432 40.0928 175.642 39.0605C175.851 38.0331 175.759 36.9862 175.364 35.9296ZM173.733 38.5736C173.675 39.2893 173.348 39.9662 172.749 40.5943C172.141 41.2322 171.479 41.5974 170.758 41.6947C170.042 41.7921 169.317 41.6801 168.591 41.3685C167.87 41.052 167.194 40.5992 166.57 40.0051C165.952 39.4159 165.47 38.7683 165.124 38.0623C164.783 37.3611 164.642 36.6502 164.706 35.9296C164.774 35.2089 165.11 34.5273 165.713 33.8943C166.312 33.2613 166.97 32.9009 167.681 32.8084C168.391 32.711 169.107 32.8182 169.828 33.1298C170.544 33.4414 171.216 33.8894 171.834 34.4786C172.462 35.0775 172.949 35.7299 173.3 36.436C173.645 37.142 173.791 37.8529 173.733 38.5736Z" fill="white"/>
<path d="M168.008 48.8239L169.123 46.6084L161.088 48.3321L157.529 40.6777L156.385 42.9419L159.384 49.3255L158.941 50.2117L153.979 47.7089L153.035 49.5787L157.997 52.0814L157.549 52.9676L150.639 54.3213L149.5 56.5806L157.768 54.9153L161.157 62.3944L162.281 60.1595L159.263 53.8587L159.72 52.953L164.662 55.4461L165.607 53.5763L160.665 51.0833L161.132 50.1581L168.008 48.8239Z" fill="white"/>
<path d="M153.429 64.4971L153.322 64.984L151.993 71.0023L151.89 71.4698L153.78 71.8885L153.882 71.4211L155.211 65.4028L155.318 64.9158L153.429 64.4971ZM148.19 61.7021L147.737 63.7521L153.322 64.984L155.211 65.4028L160.455 66.5616L160.908 64.5166L148.19 61.7021ZM153.882 71.4211L151.993 71.0023L146.408 69.7704L145.955 71.8155L158.673 74.6299L159.126 72.58L153.882 71.4211Z" fill="white"/>
<path d="M157.68 79.9817C157.091 79.1102 156.282 78.4431 155.255 77.9805C154.223 77.5179 153.03 77.3085 151.671 77.3524C150.337 77.3962 149.173 77.6883 148.18 78.2191C147.187 78.745 146.427 79.4656 145.896 80.3713C145.37 81.2818 145.122 82.3238 145.166 83.5022C145.205 84.6903 145.516 85.7226 146.106 86.599C146.695 87.4706 147.503 88.1377 148.526 88.6002C149.553 89.0677 150.731 89.2771 152.07 89.2284C153.429 89.1846 154.602 88.8973 155.601 88.3665C156.599 87.8358 157.358 87.1151 157.889 86.2046C158.42 85.294 158.663 84.2423 158.624 83.0542C158.585 81.8759 158.269 80.8485 157.68 79.9817ZM156.141 85.3038C155.703 85.8881 155.118 86.3263 154.388 86.6233C153.658 86.9204 152.859 87.0811 151.997 87.1103C151.145 87.1395 150.347 87.0324 149.602 86.784C148.862 86.5357 148.253 86.1364 147.785 85.5862C147.318 85.0311 147.07 84.3202 147.04 83.4438C147.011 82.5722 147.211 81.8515 147.639 81.277C148.073 80.7024 148.652 80.269 149.378 79.972C150.098 79.675 150.887 79.5143 151.744 79.4851C152.611 79.4559 153.419 79.563 154.169 79.8113C154.914 80.0597 155.523 80.4541 155.995 80.9994C156.467 81.5399 156.72 82.2459 156.75 83.1175C156.779 83.994 156.574 84.7244 156.141 85.3038Z" fill="white"/>
<path d="M161.02 96.2589C160.669 95.1342 160.09 94.2333 159.282 93.5614C158.473 92.8846 157.509 92.4707 156.399 92.31C155.284 92.1493 154.086 92.2662 152.81 92.6606C151.535 93.055 150.488 93.6344 149.68 94.3989C148.866 95.1682 148.326 96.069 148.063 97.1062C147.795 98.1433 147.849 99.2632 148.219 100.466C148.487 101.318 148.857 102.044 149.329 102.642C149.806 103.237 150.356 103.689 150.97 104.006C151.588 104.317 152.241 104.478 152.922 104.478L152.859 102.375C152.387 102.35 151.963 102.238 151.588 102.034C151.213 101.834 150.892 101.557 150.629 101.196C150.366 100.841 150.157 100.417 150.006 99.9255C149.772 99.1707 149.733 98.4549 149.884 97.7733C150.035 97.0964 150.386 96.5024 150.931 95.9863C151.418 95.514 152.061 95.1439 152.859 94.8712L155.635 103.86L156.467 103.602C157.616 103.246 158.542 102.789 159.238 102.233C159.939 101.678 160.45 101.065 160.772 100.388C161.098 99.7161 161.273 99.0247 161.293 98.3137C161.312 97.6077 161.22 96.9212 161.02 96.2589ZM159.277 98.8591C159.072 99.4726 158.692 100.008 158.137 100.461C157.728 100.792 157.246 101.07 156.696 101.294L154.554 94.3551C155.128 94.2139 155.703 94.1895 156.277 94.2723C156.954 94.3745 157.558 94.6326 158.089 95.0562C158.624 95.475 159.004 96.0593 159.238 96.8092C159.467 97.559 159.481 98.2407 159.277 98.8591Z" fill="white"/>
<path d="M169.565 122.441L161.346 111.184L159.783 112.328L167.676 123.133L173.855 131.595L175.413 130.456L169.565 122.441Z" fill="white"/>
<path d="M227.685 158.303L223.487 156.667C222.704 157.057 221.915 157.446 221.131 157.831L225.041 159.35L221.715 167.881L215.95 165.641C216.583 165.242 217.177 164.614 217.742 163.752C218.307 162.895 218.896 161.843 219.514 160.601L220.8 157.991C219.792 158.483 218.794 158.965 217.81 159.433L217.601 159.856C217.206 160.66 216.846 161.341 216.52 161.901C216.193 162.461 215.882 162.929 215.59 163.299C215.293 163.664 215 163.966 214.698 164.195C214.401 164.424 214.08 164.618 213.734 164.774L212.736 164.39L210.681 169.673L212.634 170.437L213.992 166.951L222.859 170.403L221.506 173.889L223.448 174.644L225.503 169.356L223.658 168.64L227.685 158.303Z" fill="white"/>
<path d="M233.085 173.621C231.936 173.339 231.001 172.823 230.27 172.068C229.54 171.313 229.053 170.388 228.81 169.288C228.566 168.187 228.605 166.99 228.926 165.694C229.253 164.375 229.774 163.279 230.499 162.417C231.225 161.551 232.082 160.952 233.08 160.621C234.078 160.289 235.149 160.265 236.293 160.548C237.447 160.83 238.392 161.351 239.127 162.106C239.863 162.86 240.35 163.79 240.588 164.896C240.832 165.996 240.788 167.209 240.466 168.528C240.15 169.823 239.629 170.904 238.903 171.766C238.178 172.628 237.316 173.222 236.318 173.553C235.315 173.884 234.239 173.909 233.085 173.621ZM233.528 171.8C234.38 172.01 235.135 171.961 235.792 171.659C236.449 171.357 237 170.88 237.438 170.232C237.876 169.585 238.197 168.845 238.402 168.017C238.606 167.179 238.665 166.366 238.577 165.582C238.49 164.798 238.227 164.117 237.783 163.542C237.34 162.968 236.693 162.573 235.841 162.364C234.998 162.154 234.248 162.208 233.596 162.515C232.943 162.821 232.398 163.304 231.96 163.956C231.522 164.608 231.195 165.358 230.991 166.201C230.786 167.033 230.728 167.832 230.82 168.611C230.908 169.39 231.171 170.062 231.609 170.632C232.048 171.201 232.685 171.591 233.533 171.8H233.528Z" fill="white"/>
<path d="M248.749 176.25C247.575 176.143 246.567 175.768 245.735 175.13C244.902 174.492 244.284 173.645 243.879 172.598C243.475 171.551 243.339 170.359 243.461 169.024C243.587 167.671 243.943 166.512 244.532 165.548C245.121 164.584 245.881 163.863 246.82 163.391C247.755 162.913 248.812 162.733 249.99 162.84C250.618 162.899 251.203 163.035 251.743 163.249C252.284 163.464 252.771 163.746 253.204 164.092C253.637 164.438 253.998 164.851 254.29 165.329C254.582 165.806 254.791 166.332 254.918 166.911L252.858 167.296C252.795 166.955 252.683 166.634 252.513 166.341C252.347 166.044 252.133 165.781 251.88 165.553C251.621 165.324 251.324 165.134 250.979 164.988C250.633 164.842 250.248 164.749 249.82 164.71C248.953 164.632 248.223 164.793 247.624 165.192C247.025 165.592 246.557 166.147 246.217 166.858C245.876 167.568 245.671 168.357 245.589 169.219C245.511 170.071 245.574 170.875 245.774 171.629C245.978 172.384 246.338 173.012 246.85 173.514C247.366 174.015 248.057 174.303 248.924 174.385C249.357 174.424 249.761 174.405 250.136 174.322C250.511 174.239 250.847 174.103 251.149 173.918C251.451 173.733 251.714 173.499 251.933 173.226C252.152 172.949 252.328 172.642 252.449 172.301L254.392 173.051C254.168 173.616 253.866 174.108 253.491 174.531C253.116 174.955 252.678 175.301 252.181 175.583C251.685 175.866 251.149 176.055 250.57 176.172C249.99 176.284 249.382 176.314 248.749 176.255V176.25Z" fill="white"/>
<path d="M261.189 176.314L260.693 165.179L256.408 165.368L256.325 163.494L266.964 163.021L267.047 164.896L262.786 165.086L263.283 176.227L261.189 176.319V176.314Z" fill="white"/>
<path d="M271.999 180.239L272.203 178.354L272.432 178.374C272.871 178.403 273.26 178.364 273.596 178.252C273.932 178.14 274.21 177.916 274.434 177.575C274.658 177.234 274.818 176.742 274.911 176.09L275.086 174.955L267.87 162.953L270.129 162.544L274.229 169.653C274.662 170.398 275.047 171.138 275.388 171.883C275.729 172.628 276.074 173.344 276.425 174.04L275.67 174.176C275.758 173.402 275.836 172.608 275.894 171.786C275.953 170.968 276.055 170.135 276.196 169.297L277.579 161.2L279.829 160.796L276.854 176.543C276.717 177.268 276.508 177.887 276.221 178.393C275.938 178.9 275.573 179.299 275.13 179.596C274.687 179.893 274.161 180.097 273.557 180.204C273.192 180.273 272.866 180.302 272.593 180.297C272.315 180.292 272.121 180.273 272.004 180.239H271.999Z" fill="white"/>
<path d="M291.729 157.042L295.717 169.439L293.721 170.082L290.327 159.525L284.484 161.405L287.878 171.961L285.871 172.609L281.884 160.212L291.734 157.047L291.729 157.042Z" fill="white"/>
<path d="M296.774 154.924L302.218 166.756L300.314 167.633L294.87 155.8L296.774 154.924ZM305.051 157.032L305.86 158.79L299.369 161.775L298.561 160.017L305.051 157.032ZM304.277 151.477L309.721 163.309L307.817 164.185L302.373 152.353L304.277 151.477Z" fill="white"/>
<path d="M311.24 153.024L314.434 151.076C315.31 150.541 316.143 150.244 316.937 150.175C317.73 150.112 318.441 150.249 319.079 150.589C319.712 150.93 320.238 151.441 320.657 152.123C321.066 152.795 321.28 153.496 321.295 154.232C321.309 154.967 321.114 155.683 320.71 156.369C320.301 157.061 319.663 157.669 318.787 158.205L314.083 161.073L307.301 149.956L309.092 148.866L314.872 158.331L317.784 156.554C318.441 156.155 318.875 155.648 319.084 155.045C319.298 154.436 319.235 153.861 318.899 153.306C318.548 152.732 318.047 152.391 317.404 152.289C316.761 152.186 316.109 152.337 315.452 152.737L312.257 154.684L311.245 153.024H311.24ZM324.143 154.933L317.36 143.816L319.152 142.726L325.935 153.842L324.143 154.933Z" fill="white"/>
<path d="M329.947 151.062L321.928 140.798L324.406 138.86L331.179 142.702C331.603 142.941 331.992 143.174 332.348 143.403C332.703 143.627 333.03 143.851 333.331 144.07C333.633 144.289 333.925 144.504 334.208 144.723C334.49 144.942 334.773 145.161 335.055 145.385L334.778 145.599C334.632 145.288 334.49 144.971 334.349 144.655C334.208 144.333 334.067 144.002 333.925 143.647C333.784 143.291 333.643 142.916 333.507 142.517C333.37 142.118 333.234 141.679 333.098 141.202L330.98 133.723L333.497 131.756L341.517 142.02L339.856 143.32L335.669 137.959C335.396 137.609 335.123 137.263 334.855 136.908C334.588 136.552 334.315 136.202 334.042 135.841C333.77 135.481 333.497 135.121 333.219 134.755C332.942 134.39 332.664 134.02 332.382 133.65L332.567 133.509C332.849 134.161 333.103 134.76 333.317 135.301C333.531 135.841 333.731 136.391 333.916 136.956C334.101 137.516 334.291 138.159 334.49 138.88L336.438 145.989L334.987 147.123L328.53 143.535C327.883 143.174 327.308 142.833 326.807 142.522C326.305 142.21 325.818 141.884 325.336 141.543C324.854 141.202 324.333 140.813 323.768 140.379L323.987 140.209C324.236 140.516 324.504 140.842 324.786 141.183C325.068 141.524 325.356 141.874 325.648 142.239C325.94 142.605 326.232 142.965 326.524 143.335C326.816 143.705 327.104 144.065 327.386 144.431L331.574 149.792L329.933 151.077L329.947 151.062Z" fill="white"/>
<path d="M346.079 138.003C345.758 138.295 345.383 138.432 344.944 138.412C344.511 138.393 344.146 138.222 343.854 137.901C343.562 137.579 343.425 137.205 343.445 136.766C343.464 136.333 343.635 135.968 343.956 135.676C344.277 135.383 344.652 135.247 345.09 135.267C345.524 135.286 345.889 135.457 346.181 135.778C346.473 136.099 346.61 136.479 346.59 136.912C346.571 137.346 346.4 137.711 346.079 138.003Z" fill="white"/>
<defs>
<linearGradient id="paint0_linear_357_290" x1="135.394" y1="183.37" x2="129" y2="14.5" gradientUnits="userSpaceOnUse">
<stop stop-color="#865DFB"/>
<stop offset="1" stop-color="#3D2482"/>
</linearGradient>
</defs>
</svg>
