<svg width="83" height="21" viewBox="0 0 83 21" fill="none" xmlns="http://www.w3.org/2000/svg">
<path d="M67.9408 20.3978H61.9648L72.084 0H79.6535L83 20.3978H77.0241L75.0322 5.61735H74.8728L67.9408 20.3978ZM68.1798 12.3502H79.4145L78.6974 16.4935H67.4627L68.1798 12.3502Z" fill="#161517"/>
<path d="M44.1943 20.3978L47.5807 0H56.3852C57.8991 0 59.1773 0.275556 60.2197 0.826667C61.2622 1.37778 62.0125 2.17125 62.4706 3.20707C62.9288 4.24289 63.0384 5.48455 62.7993 6.93205C62.5603 8.39283 62.0324 9.62453 61.2157 10.6271C60.4056 11.6231 59.3731 12.3801 58.1182 12.898C56.8699 13.4093 55.4689 13.6649 53.9151 13.6649H48.6563L49.3735 9.36225H53.5167C54.1675 9.36225 54.7385 9.28257 55.2298 9.12321C55.7212 8.95722 56.1196 8.69826 56.425 8.34635C56.7305 7.98779 56.9296 7.51636 57.0226 6.93205C57.1156 6.34774 57.0691 5.87299 56.8832 5.50779C56.6973 5.13596 56.3885 4.86372 55.9569 4.69108C55.5253 4.51181 54.9908 4.42217 54.3534 4.42217H52.4012L49.732 20.3978H44.1943ZM57.6999 11.0355L61.2456 20.3978H55.2298L51.8037 11.0355H57.6999Z" fill="#161517"/>
<path d="M27.3084 20.3978L30.6948 0H45.3955L44.6385 4.46201H35.4755L34.9177 7.96787H43.3238L42.5669 12.4299H34.1608L33.603 15.9357H42.7262L41.9693 20.3978H27.3084Z" fill="#161517"/>
<path d="M28.6367 0L25.2504 20.3978H20.629L15.0515 9.68097H14.932L13.1392 20.3978H7.60156L10.9879 0H15.689L21.1868 10.677H21.3461L23.0991 0H28.6367Z" fill="#161517"/>
<path d="M8.92402 0L5.53767 20.3978H0L3.38635 0H8.92402Z" fill="#161517"/>
</svg>
