<svg width="70" height="18" viewBox="0 0 70 18" fill="none" xmlns="http://www.w3.org/2000/svg">
<path d="M57.2997 17.8003H52.2598L60.794 0.597412H67.1779L70.0003 17.8003H64.9604L63.2804 5.33494H63.146L57.2997 17.8003ZM57.5013 11.0132H66.9763L66.3715 14.5076H56.8965L57.5013 11.0132Z" fill="white"/>
<path d="M37.2725 17.8003L40.1284 0.597412H47.5539C48.8307 0.597412 49.9087 0.829808 50.7878 1.2946C51.667 1.75939 52.2998 2.42858 52.6862 3.30217C53.0726 4.17575 53.165 5.22294 52.9634 6.44372C52.7618 7.6757 52.3166 8.71448 51.6278 9.56007C50.9446 10.4001 50.0738 11.0384 49.0155 11.4752C47.9627 11.9064 46.7811 12.122 45.4707 12.122H41.0356L41.6404 8.49329H45.1347C45.6835 8.49329 46.1651 8.42609 46.5795 8.29169C46.9939 8.15169 47.3299 7.93329 47.5875 7.6365C47.8451 7.3341 48.0131 6.93651 48.0915 6.44372C48.1699 5.95093 48.1307 5.55053 47.9739 5.24254C47.8171 4.92894 47.5567 4.69935 47.1927 4.55375C46.8287 4.40255 46.3779 4.32695 45.8403 4.32695H44.1939L41.9428 17.8003H37.2725ZM48.6627 9.90446L51.653 17.8003H46.5795L43.69 9.90446H48.6627Z" fill="white"/>
<path d="M23.0312 17.8003L25.8872 0.597412H38.2854L37.647 4.36055H29.9191L29.4487 7.3173H36.5382L35.8998 11.0804H28.8104L28.34 14.0372H36.0342L35.3959 17.8003H23.0312Z" fill="white"/>
<path d="M24.1516 0.597412L21.2957 17.8003H17.3982L12.6942 8.76208H12.5934L11.0815 17.8003H6.41113L9.26709 0.597412H13.2318L17.8685 9.60207H18.0029L19.4813 0.597412H24.1516Z" fill="white"/>
<path d="M7.52628 0.597412L4.67032 17.8003H0L2.85595 0.597412H7.52628Z" fill="white"/>
</svg>
