<svg width="227" height="179" viewBox="0 0 227 179" fill="none" xmlns="http://www.w3.org/2000/svg">
<path d="M27.8736 34.5323C31.9555 48.1389 37.8725 60.7645 45.7092 72.6116C46.5528 73.8872 48.5436 72.594 47.6992 71.3172C39.9656 59.6262 34.1546 47.2106 30.1272 33.785C29.688 32.3214 27.434 33.0671 27.8736 34.5323Z" fill="#6E41EE"/>
<path d="M16.4689 78.7285C17.2661 80.5231 18.6652 82.6624 19.6976 84.3326C20.5775 85.7552 21.8574 86.8372 22.3716 88.3716C22.8496 89.7972 21.8054 91.1822 22.6628 92.7557C23.332 93.9836 24.6067 94.8236 25.9744 95.1146C27.0573 95.3444 28.947 94.4165 29.8788 95.0666C30.8049 95.7122 30.5442 98.5777 30.7031 99.6525C31.9332 107.979 36.215 116.241 41.7529 122.58C45.204 126.53 49.7434 129.721 54.8996 130.683C56.4125 130.965 58.0407 131.012 59.0774 129.865C59.7785 129.279 60.0599 128.348 60.0777 127.276C61.0192 127.976 62.0532 128.505 63.1996 128.765C63.1864 128.831 63.1718 128.896 63.1578 128.962C63.0465 129.488 63.3399 130.077 63.8305 130.295C64.1464 130.62 64.3935 130.607 65.9073 130.926C66.4911 132.852 66.589 135.447 67.347 137.138C71.776 137.906 74.5567 138.949 78.704 139.77L77.8101 143.989C77.6904 144.554 77.9479 144.975 78.3314 145.201C78.6587 145.617 79.0318 145.606 80.3471 145.884C81.0358 147.601 82.1753 150.515 82.6622 151.707C82.9289 152.345 131.667 159.856 135.221 163.74C136.488 165.13 138.222 165.955 140.093 165.638C140.706 165.533 141.838 164.656 142.328 164.785C142.761 164.901 142.831 165.677 144.373 166.819C145.183 167.42 146.114 167.876 147.121 168.008C149.128 168.272 151.235 167.683 152.82 166.425C154.447 168.477 157.293 168.982 159.806 168.229C162.32 167.475 164.395 165.699 166.226 163.814C171.675 158.217 175.697 151.256 177.901 143.762C179.482 139.387 180.366 134.781 180.341 130.229C182.656 131.448 188.147 132.7 188.496 129.087C188.968 124.193 179.523 119.966 175.748 117.765C177.954 107.352 180.16 96.9376 182.367 86.5235C191.388 71.1586 197.13 54.4305 194.044 35.7829C193.797 34.2921 191.424 34.4153 191.674 35.9256C194.595 53.5808 190.036 68.8664 181.449 83.7246C147.188 76.4734 112.854 69.5752 78.5934 62.3225C78.4089 62.2834 78.2399 62.2851 78.0876 62.318C77.6336 62.3581 77.2101 62.6361 77.0874 63.2155C74.409 75.8573 73.7774 78.9096 72.3658 85.7227C66.2373 83.6833 59.9871 82.1245 53.5921 81.4995C55.3315 79.7973 56.6101 77.4891 54.6531 75.9007C50.66 72.6592 41.9655 78.4339 38.473 80.2584C34.9247 82.1124 31.2964 84.2142 28.0989 86.6718C27.8406 85.7261 22.6398 79.7796 17.208 67.6936C16.5879 66.3141 14.3265 67.0444 14.9544 68.4413C15.0613 68.6788 15.1748 68.9126 15.283 69.1495C14.3425 70.7959 14.0502 71.5567 13.5392 72.9548C13.3142 73.5691 16.1873 78.0946 16.4689 78.7285ZM69.1775 126.07C72.9054 128.157 75.831 126.272 76.3737 121.913C77.3708 122.311 78.4138 122.552 79.4978 122.556C82.8376 122.571 82.6996 118.922 81.8564 116.478C80.0391 111.207 74.7462 106.577 71.3127 102.177C72.2216 99.8202 72.4466 97.0056 72.9588 94.5493C73.7178 90.909 74.4695 87.2676 75.2244 83.6264C75.9785 79.9887 76.7508 76.3548 77.5162 72.7194C78.4058 74.3108 79.648 75.8635 80.6385 77.2658C84.3621 82.5193 86.4355 85.8157 89.3095 89.7122L80.4422 131.566C75.7702 130.577 71.0971 129.597 66.4254 128.609C67.6567 128.167 68.651 127.28 69.1775 126.07ZM168.027 104.573C167.15 104.387 157.414 102.348 152.443 101.316C161.389 96.8579 170.319 92.3671 179.112 87.612C173.733 96.2373 167.124 104.382 168.027 104.573ZM162.64 111.81C165.663 110.084 166.115 109.813 168.168 108.603L167.22 113.08C165.664 112.42 164.102 111.94 162.64 111.81ZM159.807 118.33C155.499 118.782 151.308 119.689 147.05 120.48C151.202 118.208 153.669 116.859 157.773 114.563C157.81 115.801 158.719 117.202 159.807 118.33ZM141.162 139.121C140.401 137.623 139.677 136.106 138.988 134.573C141.398 134.471 144.304 134.123 145.168 133.98C144.084 135.75 142.503 137.508 141.162 139.121ZM136.414 134.613C137.373 136.79 138.396 138.938 139.49 141.051C138.895 141.719 137.123 143.715 136.283 144.807C134.273 147.42 130.987 150.49 130.577 153.992C114.488 150.64 98.4011 147.274 82.3221 143.874C91.3322 137.862 100.386 131.802 109.77 126.376C111.818 129.229 113.9 132.095 116.068 134.987C118.421 134.8 119.91 134.522 120.785 134.179C120.961 134.283 121.152 134.326 121.343 134.329C121.667 134.495 122.068 134.518 122.471 134.282C123.774 133.504 125.085 132.739 126.397 131.976C129.192 134.384 132.789 134.57 136.414 134.613ZM89.8592 98.5715C96.3867 107.328 102.24 115.827 108.382 124.439C98.8923 129.933 89.7385 136.073 80.6259 142.152C83.7037 127.625 86.7814 113.098 89.8592 98.5715ZM125.137 125.164C124.162 127.086 124.228 128.739 124.904 130.102C123.906 130.689 122.908 131.275 121.909 131.861C106.311 110.392 108.679 113.805 92.939 91.4078C113.398 95.7266 143.237 101.776 166.619 106.709C160.377 110.201 141.603 120.697 140.065 121.557C135.652 121.931 127.485 120.53 125.137 125.164ZM148.714 100.541C131.72 97.0222 114.716 93.5507 97.731 89.9854C91.6344 81.9826 85.2001 73.1949 79.0998 65.1834C79.1221 65.0783 79.1436 64.9731 79.1659 64.868C112.131 71.8393 145.162 78.4965 178.13 85.4548C168.44 90.7046 158.578 95.6269 148.714 100.541ZM69.5991 99.9281C67.5198 97.1728 67.3218 97.2352 66.6885 96.2265C67.4283 95.8887 69.3555 96.3334 70.3671 96.4821C70.1669 97.6696 69.9244 98.8363 69.5991 99.9281ZM183.609 125.691C184.596 126.566 187.236 128.154 184.259 128.914C183.445 129.122 181.775 128.349 181.097 127.934C180.789 127.745 180.495 127.723 180.24 127.803C180.182 127.048 180.099 126.296 179.987 125.548C179.763 124.05 177.39 124.175 177.617 125.691C179.695 139.599 171.635 155.379 161.17 162.573C159.67 163.604 154.158 166.407 155.234 161.348C155.248 161.283 155.25 161.222 155.255 161.161C156.138 160.135 156.944 159.055 157.699 158.074C158.627 156.869 156.875 155.266 155.942 156.477C154.609 158.207 153.255 160.023 151.587 161.447C149.924 162.867 145.5 164.34 145.318 160.893C146.99 159.413 149.456 156.287 151.472 154.061C152.499 152.926 150.741 151.33 149.715 152.464C147.675 154.716 145.7 157.031 143.657 159.276C143.315 159.499 142.53 159.851 142.493 159.864C140.447 160.569 138.66 158.915 138.528 156.849C138.522 156.751 138.506 156.661 138.482 156.576C141.065 154.787 143.478 152.355 144.294 151.253C145.196 150.035 143.446 148.429 142.536 149.657C140.767 152.045 138.356 155.217 135.266 155.889C129.437 157.157 136.699 148.163 138.04 146.404C140.514 143.161 147.685 136.101 148.533 132.102C148.849 130.608 146.527 130.113 146.21 131.61C146.174 131.782 135.854 132.739 131.361 131.885C126.883 131.035 124.937 125.777 130.356 124.545C132.574 124.04 135.219 124.344 137.503 124.18C147.354 123.476 156.532 120.104 166.55 120.435C168.074 120.485 167.927 118.115 166.407 118.065C165.357 118.03 164.319 118.039 163.289 118.079C162.446 117.636 159.295 115.465 160.717 114.399C161.441 113.857 164.733 114.984 165.101 115.118C168.868 116.491 179.888 122.395 183.609 125.691ZM173.592 116.485C172.345 115.733 170.921 114.89 169.426 114.119C169.969 111.556 170.513 108.992 171.056 106.428C171.189 105.8 170.77 105.154 170.141 105.021C170.046 105.001 169.951 104.982 169.857 104.962C172.92 100.893 175.903 96.7334 178.68 92.4694C176.984 100.475 175.288 108.48 173.592 116.485ZM30.4941 87.8491C34.5846 84.8189 43.7696 79.8255 48.0889 78.3501C49.0665 78.0161 50.9528 77.112 51.8775 77.6093C54.1078 78.8081 51.3748 80.6549 50.0843 81.2524C48.9666 81.2056 47.8445 81.1886 46.7179 81.2047C45.191 81.2268 45.333 83.597 46.8606 83.5751C55.4671 83.4505 63.7792 85.3475 71.8839 88.048C71.1363 91.6551 71.1012 91.697 70.7316 94.1501C68.6996 93.8815 64.8357 92.9251 63.9951 94.9654C63.1497 97.0167 66.6387 99.8898 67.7043 101.312C70.8835 105.556 74.3572 109.566 77.5445 113.807C78.7354 115.391 81.8672 120.026 78.3 119.92C75.1298 119.824 71.846 115.582 70.2862 113.356C69.4101 112.106 67.417 113.396 68.2959 114.651C69.7429 116.715 71.7264 119.073 74.0768 120.674C74.2391 124.888 71.2051 125.318 68.0678 121.92C66.2576 119.959 64.6243 117.813 62.8607 115.807C61.8514 114.66 60.2653 116.429 61.2637 117.564C62.9204 119.448 64.8599 122.509 67.1869 124.615C66.8385 128.647 61.5678 125.528 60.2958 124.252C58.9822 122.934 57.8695 121.432 56.7649 119.94C55.8584 118.716 53.8632 120.003 54.7747 121.234C55.5445 122.274 56.3639 123.425 57.2684 124.515C57.2724 124.618 57.2847 124.723 57.3176 124.835C59.1812 131.163 50.7234 125.494 48.8846 123.74C46.0595 121.044 43.4416 118.151 41.3884 114.815C36.729 107.245 34.0169 97.6369 35.5163 88.7872C35.7709 87.285 33.4498 86.7853 33.1939 88.2951C33.0551 89.1161 32.954 89.9438 32.8783 90.7746C32.5836 90.6706 32.2421 90.6812 31.8984 90.8829C31.4495 91.1468 28.4936 92.1889 28.0005 91.8391C26.2651 90.6089 29.9407 88.2592 30.4941 87.8491Z" fill="#6E41EE"/>
<path d="M55.1966 47.419C58.6069 52.321 62.0172 57.2226 65.4276 62.1242C66.2995 63.3777 68.2925 62.0874 67.4178 60.8301C64.0072 55.9281 60.5969 51.0265 57.1865 46.1249C56.3146 44.8714 54.322 46.1618 55.1966 47.419Z" fill="#6E41EE"/>
<path d="M78.0621 51.5592C76.781 44.5234 75.4992 37.4869 74.2181 30.4507C73.9481 28.968 71.5736 29.089 71.8477 30.5934C73.1292 37.6298 74.4106 44.6661 75.6921 51.7021C75.9621 53.1851 78.3362 53.064 78.0621 51.5592Z" fill="#6E41EE"/>
<path d="M100.798 27.1418C97.9533 35.1279 95.6658 43.268 93.934 51.5669C93.6221 53.0617 95.9438 53.5567 96.2564 52.0589C97.9882 43.7601 100.276 35.6196 103.12 27.6339C103.631 26.1994 101.304 25.7213 100.798 27.1418Z" fill="#6E41EE"/>
<path d="M200.343 106.749C196.757 112.282 193.101 117.767 189.268 123.132C188.678 123.958 189.273 124.95 189.995 125.141C190.113 125.241 190.353 125.18 190.509 125.128C194.893 124.066 197.072 120.506 198.662 118.647C202.414 114.266 205.295 108.463 207.934 103.334C210.5 98.3482 214.713 89.5161 216.769 83.1303C221.763 70.5296 223.429 56.6965 223.615 43.2278C223.636 41.7014 221.266 41.8473 221.245 43.3706C220.742 79.8472 209.738 92.2561 200.343 106.749Z" fill="#6E41EE"/>
<path d="M185.367 114.69C183.885 115.216 183.13 116.705 183.437 118.204C183.731 119.629 185.602 120.623 187.252 120.034C188.712 119.513 189.351 117.875 188.832 116.456C188.322 115.06 186.821 114.175 185.367 114.69ZM186.374 117.824C186.083 117.899 185.848 117.779 185.702 117.541C185.698 117.513 185.696 117.485 185.691 117.456C185.66 117.304 186.323 116.382 186.626 117.342C186.713 117.619 186.617 117.761 186.374 117.824Z" fill="#6E41EE"/>
</svg>
