<svg width="34" height="34" viewBox="0 0 34 34" fill="none" xmlns="http://www.w3.org/2000/svg">
<path d="M17.0001 33.25C16.7285 33.2499 16.4643 33.1614 16.2475 32.9978C16.0306 32.8342 15.873 32.6044 15.7984 32.3433L14.5001 27.7983C13.942 25.8209 12.886 24.0197 11.4332 22.5669C9.98031 21.114 8.17912 20.0581 6.20174 19.5L1.65674 18.2016C1.39575 18.1269 1.16619 17.9692 1.00278 17.7524C0.839365 17.5356 0.750977 17.2714 0.750977 17C0.750977 16.7285 0.839365 16.4644 1.00278 16.2476C1.16619 16.0308 1.39575 15.8731 1.65674 15.7983L6.20174 14.5C8.17912 13.9418 9.98031 12.8859 11.4332 11.433C12.886 9.98019 13.942 8.179 14.5001 6.20162L15.7984 1.65662C15.8732 1.39563 16.0309 1.16607 16.2477 1.00266C16.4645 0.839243 16.7286 0.750854 17.0001 0.750854C17.2716 0.750854 17.5357 0.839243 17.7525 1.00266C17.9693 1.16607 18.127 1.39563 18.2017 1.65662L19.5001 6.20162C20.0582 8.179 21.1141 9.98019 22.567 11.433C24.0198 12.8859 25.821 13.9418 27.7984 14.5L32.3434 15.7983C32.6044 15.8731 32.834 16.0308 32.9974 16.2476C33.1608 16.4644 33.2492 16.7285 33.2492 17C33.2492 17.2714 33.1608 17.5356 32.9974 17.7524C32.834 17.9692 32.6044 18.1269 32.3434 18.2016L27.7984 19.5C25.821 20.0581 24.0198 21.114 22.567 22.5669C21.1141 24.0197 20.0582 25.8209 19.5001 27.7983L18.2017 32.3433C18.1271 32.6044 17.9695 32.8342 17.7527 32.9978C17.5359 33.1614 17.2717 33.2499 17.0001 33.25ZM6.55008 17L6.88341 17.0966C9.26978 17.7703 11.4435 19.0448 13.1969 20.7981C14.9503 22.5515 16.2247 24.7252 16.8984 27.1116L16.9951 27.445L17.0917 27.1116C17.7654 24.7252 19.0399 22.5515 20.7933 20.7981C22.5466 19.0448 24.7204 17.7703 27.1067 17.0966L27.4401 17L27.1067 16.9033C24.7204 16.2296 22.5466 14.9551 20.7933 13.2018C19.0399 11.4484 17.7654 9.27466 17.0917 6.88829L17.0001 6.55162L16.9034 6.88495C16.2297 9.27133 14.9553 11.4451 13.2019 13.1984C11.4485 14.9518 9.27478 16.2262 6.88841 16.9L6.55008 17Z" fill="white"/>
</svg>
