<svg width="180" height="180" viewBox="0 0 180 180" fill="none" xmlns="http://www.w3.org/2000/svg">
<circle cx="90" cy="90" r="90" fill="#6E41EE"/>
<g clip-path="url(#clip0_357_49)">
<path d="M146.818 141.089C145.871 142.145 144.783 142.873 143.546 143.28C142.31 143.687 141.019 143.726 139.673 143.398C138.326 143.069 137.012 142.333 135.728 141.183C134.445 140.032 133.56 138.804 133.083 137.497C132.606 136.19 132.504 134.906 132.77 133.631C133.036 132.355 133.646 131.189 134.593 130.14C135.54 129.084 136.628 128.356 137.865 127.957C139.101 127.55 140.393 127.518 141.739 127.847C143.085 128.176 144.407 128.919 145.691 130.078C146.974 131.228 147.851 132.457 148.328 133.756C148.806 135.055 148.907 136.346 148.641 137.614C148.375 138.882 147.765 140.048 146.818 141.097V141.089ZM144.658 139.148C145.213 138.53 145.542 137.857 145.652 137.121C145.761 136.385 145.644 135.626 145.284 134.844C144.924 134.061 144.329 133.286 143.476 132.527C142.623 131.768 141.786 131.251 140.964 130.978C140.142 130.704 139.375 130.665 138.655 130.86C137.935 131.048 137.301 131.455 136.746 132.073C136.198 132.684 135.869 133.365 135.76 134.1C135.65 134.844 135.767 135.603 136.127 136.385C136.487 137.168 137.09 137.943 137.943 138.71C138.788 139.469 139.618 139.978 140.44 140.244C141.253 140.51 142.028 140.549 142.748 140.353C143.468 140.158 144.11 139.758 144.658 139.148Z" fill="white"/>
<path d="M156.819 127.096C156.271 128.082 155.566 128.841 154.713 129.365C153.86 129.89 152.898 130.148 151.825 130.125C150.761 130.101 149.634 129.765 148.46 129.115L148.147 128.943C147.333 128.489 146.598 128.004 145.948 127.503C145.299 126.994 144.751 126.446 144.312 125.867C143.874 125.28 143.561 124.646 143.373 123.95C143.185 123.253 143.146 122.494 143.264 121.665C143.373 120.843 143.663 119.935 144.125 118.949C144.336 118.479 144.469 118.112 144.516 117.853C144.563 117.595 144.539 117.392 144.438 117.243C144.336 117.094 144.172 116.953 143.952 116.828L145.181 114.613C145.878 115.005 146.371 115.443 146.676 115.912C146.981 116.382 147.083 116.938 147.012 117.579C146.942 118.221 146.699 118.98 146.292 119.865C145.885 120.757 145.651 121.539 145.58 122.212C145.51 122.885 145.651 123.504 146.003 124.075C146.355 124.646 146.965 125.225 147.826 125.828L147.858 125.773C147.537 125.359 147.286 124.858 147.13 124.286C146.973 123.715 146.911 123.105 146.965 122.471C147.02 121.837 147.216 121.218 147.545 120.616C147.967 119.849 148.554 119.27 149.282 118.878C150.018 118.487 150.824 118.307 151.724 118.346C152.624 118.385 153.524 118.652 154.447 119.16C155.449 119.716 156.216 120.42 156.764 121.281C157.312 122.142 157.593 123.073 157.617 124.083C157.64 125.092 157.374 126.094 156.826 127.096H156.819ZM154.658 125.867C154.925 125.39 155.034 124.92 154.995 124.451C154.956 123.981 154.768 123.535 154.439 123.112C154.111 122.69 153.641 122.306 153.031 121.97C152.42 121.633 151.849 121.43 151.325 121.367C150.8 121.305 150.331 121.383 149.916 121.594C149.501 121.805 149.165 122.15 148.906 122.627C148.648 123.105 148.531 123.582 148.562 124.075C148.593 124.56 148.773 125.03 149.102 125.468C149.431 125.906 149.892 126.29 150.487 126.626C151.074 126.955 151.638 127.143 152.17 127.19C152.71 127.237 153.187 127.151 153.61 126.932C154.032 126.712 154.385 126.352 154.651 125.867H154.658Z" fill="white"/>
<path d="M162.798 113.189C162.438 114.316 161.874 115.216 161.123 115.897C160.372 116.57 159.487 116.993 158.462 117.165C157.445 117.337 156.357 117.235 155.199 116.867C154.033 116.492 153.086 115.936 152.358 115.208C151.622 114.473 151.153 113.612 150.934 112.626C150.714 111.64 150.785 110.583 151.153 109.456C151.372 108.767 151.669 108.165 152.029 107.648C152.397 107.132 152.82 106.709 153.297 106.373C153.774 106.036 154.307 105.809 154.878 105.684C155.449 105.559 156.052 105.543 156.678 105.637L156.169 108.627C155.856 108.595 155.567 108.603 155.293 108.65C155.019 108.697 154.776 108.783 154.549 108.916C154.322 109.049 154.127 109.221 153.962 109.433C153.798 109.644 153.665 109.902 153.571 110.2C153.399 110.74 153.399 111.233 153.571 111.687C153.743 112.141 154.048 112.547 154.502 112.9C154.956 113.26 155.52 113.541 156.2 113.761C156.874 113.98 157.5 114.074 158.071 114.05C158.642 114.027 159.135 113.878 159.542 113.604C159.949 113.33 160.239 112.931 160.411 112.391C160.505 112.094 160.544 111.804 160.536 111.538C160.52 111.264 160.458 111.014 160.348 110.771C160.239 110.528 160.082 110.309 159.879 110.106C159.675 109.902 159.433 109.722 159.143 109.574L160.481 106.85C161.06 107.132 161.546 107.492 161.937 107.93C162.328 108.368 162.626 108.861 162.837 109.417C163.048 109.973 163.15 110.567 163.142 111.209C163.142 111.851 163.025 112.516 162.806 113.197L162.798 113.189Z" fill="white"/>
<path d="M169.192 105.121L166.836 104.244L167.001 103.642C167.134 103.266 167.189 102.922 167.173 102.624C167.149 102.327 167.048 102.069 166.86 101.865C166.672 101.662 166.398 101.505 166.038 101.403L165.373 101.176L153.062 104.15L153.477 100.793L159.754 99.5642C160.536 99.4155 161.311 99.3059 162.086 99.2433C162.861 99.1807 163.667 99.1024 164.496 99.0085L164.403 99.7755C163.62 99.4859 162.861 99.1963 162.125 98.9068C161.389 98.6172 160.662 98.312 159.949 97.9755L154.174 95.1737L154.589 91.8477L167.181 98.5233C167.783 98.8442 168.284 99.212 168.691 99.6346C169.098 100.057 169.388 100.55 169.568 101.106C169.748 101.662 169.787 102.327 169.693 103.078C169.646 103.485 169.576 103.861 169.482 104.221C169.388 104.581 169.294 104.886 169.192 105.129V105.121Z" fill="white"/>
<path d="M169.928 91.5187L163.855 91.91L163.792 90.9866C163.605 90.744 163.338 90.5405 162.978 90.3918C162.618 90.2431 162.212 90.1335 161.742 90.0553C161.272 89.977 160.748 89.93 160.192 89.8987C159.629 89.8674 159.05 89.8518 158.447 89.844L154.448 89.7813L153.869 80.7344L163.096 80.1396L162.978 78.3005L169.051 77.9092L169.247 80.9613L165.749 81.1883L166.226 88.6231L169.725 88.3961L169.928 91.5187ZM163.589 87.77L163.291 83.1605L156.577 83.5909L156.788 86.9092L158.259 86.9327C159.504 86.9327 160.56 87.0031 161.437 87.1127C162.305 87.23 163.025 87.4492 163.589 87.77Z" fill="white"/>
<path d="M161.852 63.9785L162.713 67.0542L155.974 68.9403L155.998 69.0107L164.067 71.8594L164.802 74.4811L153.407 77.6742L152.547 74.6063L159.254 72.7281L159.23 72.6576L151.201 69.8324L150.457 67.1716L161.852 63.9785Z" fill="white"/>
<path d="M158.963 57.4513L150.644 61.5678L152.327 64.9643L150.041 66.0991L145.268 56.4573L147.553 55.3226L149.228 58.7034L157.547 54.5869L158.963 57.4513Z" fill="white"/>
<path d="M146.285 51.4803L144.172 48.6472C143.554 47.8177 143.162 47.0038 142.99 46.2133C142.826 45.4229 142.865 44.6872 143.115 44.0064C143.366 43.3255 143.82 42.7464 144.485 42.2533C145.127 41.7759 145.807 41.5098 146.535 41.4629C147.263 41.4159 147.975 41.5803 148.687 41.9716C149.4 42.3629 150.065 42.9655 150.683 43.7951L154.041 48.2951L144.555 55.362L142.646 52.8029L150.088 47.2542L148.656 45.329C148.32 44.8751 147.944 44.5933 147.529 44.4916C147.114 44.3898 146.723 44.4681 146.355 44.742C145.98 45.0238 145.776 45.3838 145.753 45.8142C145.729 46.2446 145.886 46.6907 146.222 47.1368L148.32 49.9542L146.277 51.4803H146.285Z" fill="white"/>
<path d="M125.107 35.5694L132.37 26.2329L134.89 28.1973L129.2 35.5068L132.589 38.1442L138.279 30.8346L140.807 32.799L133.544 42.1355L125.1 35.5694H125.107Z" fill="white"/>
<path d="M130.492 19.7612L123.252 34.3804L120.435 32.9873L121.28 31.2812L121.155 31.2186C120.858 31.4456 120.513 31.6412 120.114 31.7978C119.715 31.9543 119.269 32.0325 118.784 32.0169C118.291 32.0012 117.759 31.8604 117.187 31.5786C116.373 31.1795 115.747 30.6004 115.293 29.8569C114.839 29.1134 114.628 28.2369 114.636 27.2351C114.644 26.2334 114.941 25.1378 115.528 23.956C116.107 22.7899 116.788 21.8978 117.571 21.2717C118.353 20.6456 119.183 20.2856 120.052 20.1838C120.92 20.0821 121.781 20.2386 122.619 20.6534C123.166 20.9273 123.597 21.2482 123.902 21.6317C124.207 22.0151 124.419 22.4065 124.544 22.8134C124.661 23.2204 124.724 23.6195 124.724 24.003L124.802 24.0421L127.619 18.3525L130.484 19.7691L130.492 19.7612ZM122.345 23.3691C121.844 23.1186 121.359 23.0482 120.889 23.1421C120.419 23.236 119.973 23.4865 119.566 23.8699C119.152 24.2612 118.792 24.7699 118.479 25.4038C118.166 26.0299 117.986 26.6247 117.923 27.1882C117.86 27.7517 117.939 28.2447 118.15 28.6751C118.361 29.1056 118.713 29.4421 119.214 29.6925C119.699 29.9351 120.185 30.0134 120.662 29.9273C121.139 29.8412 121.586 29.6064 122 29.2308C122.415 28.8473 122.783 28.3386 123.096 27.6969C123.417 27.0551 123.597 26.4525 123.644 25.8891C123.691 25.3256 123.612 24.8247 123.393 24.3865C123.174 23.9482 122.83 23.6117 122.345 23.3691Z" fill="white"/>
<path d="M109.182 15.6996C110.34 16.0049 111.271 16.5135 111.991 17.2257C112.711 17.9379 113.181 18.8066 113.408 19.8162C113.635 20.8257 113.596 21.9135 113.283 23.0875C112.97 24.277 112.469 25.2553 111.78 26.0222C111.091 26.7892 110.254 27.3135 109.276 27.5796C108.297 27.8457 107.233 27.8379 106.083 27.5327C104.932 27.2353 104.001 26.7266 103.289 26.0066C102.569 25.2866 102.099 24.4257 101.872 23.4162C101.645 22.4066 101.684 21.3109 101.997 20.1214C102.303 18.9475 102.803 17.977 103.5 17.2101C104.189 16.4431 105.026 15.9188 106.004 15.6527C106.983 15.3866 108.039 15.3944 109.19 15.6996H109.182ZM108.54 18.1414C108 18.0005 107.507 18.0318 107.061 18.2275C106.615 18.4231 106.223 18.7596 105.895 19.237C105.566 19.7066 105.308 20.2857 105.136 20.9588C104.956 21.6396 104.893 22.2735 104.956 22.837C105.018 23.4005 105.19 23.8857 105.48 24.2849C105.77 24.6762 106.184 24.9501 106.724 25.0909C107.264 25.2318 107.757 25.2005 108.211 25.0049C108.665 24.8092 109.049 24.4727 109.377 24.0031C109.706 23.5335 109.956 22.9622 110.136 22.2735C110.316 21.5927 110.379 20.9744 110.324 20.4031C110.27 19.8318 110.097 19.3466 109.808 18.9553C109.518 18.564 109.096 18.2901 108.548 18.1492L108.54 18.1414Z" fill="white"/>
<path d="M94.1247 13.3209C95.3299 13.3913 96.3552 13.7043 97.2004 14.26C98.0456 14.8156 98.6717 15.5591 99.0943 16.4982C99.5169 17.4374 99.6891 18.5252 99.6108 19.7617C99.5404 20.9826 99.2352 22.0313 98.7108 22.9235C98.1865 23.8156 97.4821 24.4887 96.5899 24.9504C95.7056 25.4122 94.6882 25.6156 93.5378 25.5452C92.7473 25.4982 92.0195 25.3261 91.3543 25.0287C90.6891 24.7313 90.1178 24.3165 89.6404 23.7843C89.163 23.2522 88.803 22.6026 88.5682 21.8278C88.3334 21.0608 88.2395 20.1843 88.3021 19.1982L88.3569 18.3139L98.3821 18.9165L98.2647 20.9278L89.7891 20.4191L91.3073 19.9808C91.2682 20.5913 91.3386 21.1313 91.503 21.593C91.6673 22.0548 91.9334 22.4226 92.2934 22.6887C92.6534 22.9548 93.1073 23.1113 93.6552 23.1426C94.203 23.1739 94.6804 23.08 95.0795 22.853C95.4786 22.6261 95.7917 22.3052 96.0265 21.8826C96.2534 21.46 96.3865 20.9669 96.4178 20.4035L96.5038 18.9948C96.543 18.3295 96.4647 17.7582 96.2612 17.2808C96.0578 16.8035 95.7604 16.4356 95.3534 16.1695C94.9543 15.9035 94.4691 15.7548 93.9134 15.7235C93.5378 15.7 93.1856 15.7313 92.8725 15.8252C92.5517 15.9191 92.2856 16.06 92.0508 16.2556C91.816 16.4513 91.636 16.7017 91.503 16.9991L88.6308 16.4043C88.8578 15.7313 89.2256 15.1522 89.7421 14.6748C90.2508 14.1974 90.8769 13.8374 91.6204 13.5948C92.3638 13.36 93.1934 13.2661 94.1247 13.3209Z" fill="white"/>
<path d="M84.7568 13.4224L86.275 25.1537L83.1055 25.5606L82.4951 20.8102L81.5872 20.9276L78.8324 26.1163L75.0916 26.6015L78.5742 20.2545L73.5342 14.878L77.3064 14.3928L80.9377 18.4311L82.1585 18.2745L81.5872 13.845L84.7568 13.438V13.4224Z" fill="white"/>
<path d="M67.993 16.5293L70.8025 25.3728L74.4182 24.2224L75.193 26.6563L64.9408 29.9119L64.166 27.478L67.7582 26.3354L64.9486 17.4919L67.993 16.5215V16.5293Z" fill="white"/>
<path d="M53.7028 30.4201L55.1428 33.1044L56.4028 30.3184L58.2262 31.2731L56.6062 33.8792L59.6584 33.5584L59.7289 35.6323L56.6689 35.554L58.461 38.0271L56.7236 39.1149L55.2602 36.4384L54.008 39.2244L52.1845 38.2462L53.781 35.6479L50.7445 35.9531L50.6741 33.9027L53.7262 33.9888L51.9575 31.5079L53.6949 30.4201H53.7028Z" fill="white"/>
<path d="M31.9781 39.3496C32.9094 38.2852 33.9972 37.5418 35.2259 37.127C36.4624 36.7044 37.7537 36.6574 39.0998 36.9705C40.4459 37.2835 41.7685 38.0113 43.0676 39.1461C44.3668 40.2887 45.2589 41.5096 45.752 42.8087C46.245 44.1079 46.3624 45.3992 46.1041 46.6748C45.8459 47.9505 45.2511 49.1244 44.3198 50.1887C43.3885 51.2531 42.3085 51.9887 41.072 52.4113C39.8433 52.8261 38.552 52.8809 37.1981 52.56C35.8441 52.247 34.5215 51.5113 33.2224 50.3766C31.9311 49.2418 31.0389 48.0209 30.5459 46.7218C30.0528 45.4226 29.9355 44.1392 30.1937 42.8635C30.452 41.5879 31.0468 40.4218 31.9781 39.3574V39.3496ZM34.1615 41.267C33.6137 41.8931 33.2928 42.5661 33.1833 43.3018C33.0815 44.0374 33.2068 44.7966 33.5746 45.5792C33.9424 46.3618 34.5528 47.1287 35.4059 47.8722C36.2668 48.6235 37.1041 49.1322 37.9337 49.3983C38.7633 49.6644 39.5302 49.6957 40.2424 49.4922C40.9546 49.2887 41.5885 48.8818 42.1363 48.2635C42.6763 47.6452 42.9972 46.9644 43.1068 46.2287C43.2085 45.4852 43.0833 44.7261 42.7154 43.9435C42.3476 43.1609 41.7372 42.3939 40.8763 41.6426C40.0233 40.8913 39.1859 40.3905 38.3641 40.1322C37.5424 39.8739 36.7754 39.8426 36.0554 40.0461C35.3354 40.2418 34.7015 40.6566 34.1615 41.267Z" fill="white"/>
<path d="M22.1241 53.4367C22.6641 52.4428 23.3528 51.6836 24.2058 51.1436C25.0589 50.6115 26.0136 50.3454 27.0858 50.3532C28.1502 50.361 29.2771 50.6897 30.4588 51.3236L30.7719 51.4958C31.5936 51.9419 32.3371 52.4115 32.9867 52.9123C33.6362 53.4132 34.1919 53.9532 34.638 54.5323C35.0841 55.1115 35.4049 55.7454 35.6006 56.4419C35.7962 57.1384 35.8354 57.8975 35.7336 58.7193C35.6319 59.5488 35.3502 60.4567 34.8962 61.4428C34.6928 61.9123 34.5597 62.2801 34.5128 62.5384C34.4658 62.7967 34.4971 63.0001 34.5988 63.1488C34.7006 63.2975 34.8649 63.4306 35.0919 63.5558L33.8867 65.7784C33.1902 65.3871 32.6815 64.9645 32.3841 64.4949C32.0867 64.0254 31.9615 63.4697 32.0319 62.8358C32.1023 62.2019 32.3293 61.4349 32.7284 60.5428C33.1275 59.6428 33.3545 58.8601 33.4171 58.1871C33.4797 57.5141 33.331 56.8958 32.971 56.3323C32.611 55.7688 32.0006 55.1897 31.1319 54.5949L31.1006 54.6497C31.4293 55.0645 31.6797 55.5575 31.8441 56.1288C32.0084 56.7002 32.071 57.3106 32.0241 57.9445C31.9771 58.5784 31.7893 59.1967 31.4606 59.8071C31.0458 60.5819 30.4667 61.1688 29.7389 61.5601C29.011 61.9515 28.1971 62.1471 27.3049 62.1158C26.4049 62.0923 25.4971 61.8262 24.5736 61.3254C23.5641 60.7775 22.7893 60.081 22.2336 59.228C21.678 58.3749 21.3884 57.4436 21.3493 56.4341C21.318 55.4245 21.5684 54.4228 22.1084 53.4132L22.1241 53.4367ZM24.3075 54.6419C24.0493 55.1193 23.9397 55.5888 23.9867 56.0584C24.0336 56.528 24.2215 56.9662 24.5502 57.3888C24.8789 57.8115 25.3562 58.1871 25.9745 58.5158C26.5928 58.8523 27.1641 59.0401 27.6884 59.0949C28.2128 59.1497 28.6823 59.0636 29.0971 58.8523C29.5041 58.6332 29.8406 58.2888 30.0988 57.8115C30.3571 57.3341 30.4667 56.8488 30.4275 56.3636C30.3884 55.8784 30.2006 55.4167 29.8719 54.9784C29.5432 54.5402 29.0736 54.1645 28.471 53.8358C27.8841 53.5149 27.3206 53.3349 26.7806 53.288C26.2406 53.241 25.7632 53.3349 25.3406 53.5619C24.918 53.7888 24.5736 54.1488 24.3075 54.6341V54.6419Z" fill="white"/>
<path d="M16.3015 67.4066C16.6537 66.2718 17.2015 65.364 17.945 64.6831C18.6885 64.0022 19.5728 63.5718 20.5902 63.3918C21.6076 63.2118 22.6954 63.2979 23.8537 63.6579C25.0198 64.0179 25.9745 64.5657 26.7102 65.2935C27.4458 66.0214 27.9311 66.8744 28.1658 67.8605C28.3928 68.8466 28.338 69.9031 27.9858 71.0379C27.7745 71.7266 27.485 72.3292 27.125 72.8535C26.765 73.3779 26.3424 73.8005 25.865 74.1448C25.3876 74.4814 24.8632 74.7161 24.2919 74.8492C23.7206 74.9822 23.1258 75.0057 22.4919 74.9118L22.9693 71.9222C23.2824 71.9535 23.5719 71.9379 23.8458 71.8909C24.1119 71.8362 24.3624 71.7501 24.5893 71.617C24.8163 71.484 25.0041 71.3118 25.1685 71.0927C25.3328 70.8814 25.458 70.6231 25.5519 70.3179C25.7163 69.7779 25.7163 69.2848 25.5441 68.8309C25.3719 68.377 25.0589 67.9779 24.5971 67.6257C24.1432 67.2735 23.5719 66.9918 22.8911 66.7805C22.218 66.5692 21.5919 66.4831 21.0128 66.5144C20.4415 66.5457 19.9485 66.7022 19.5493 66.9762C19.1502 67.2501 18.8606 67.657 18.6963 68.197C18.6024 68.4944 18.5632 68.784 18.5789 69.0501C18.5945 69.324 18.6572 69.5744 18.7745 69.817C18.8841 70.0596 19.0406 70.2788 19.2441 70.4822C19.4476 70.6857 19.698 70.8579 19.9876 71.0066L18.6806 73.7457C18.1015 73.4718 17.6085 73.1118 17.2172 72.6814C16.8258 72.2509 16.5128 71.7579 16.3015 71.2022C16.0902 70.6466 15.9806 70.0518 15.9728 69.4101C15.965 68.7683 16.0745 68.1031 16.2858 67.4144L16.3015 67.4066Z" fill="white"/>
<path d="M9.98597 75.5459L12.3494 76.3989L12.1929 77.0094C12.0599 77.3929 12.0129 77.7294 12.0364 78.0346C12.0599 78.332 12.1694 78.5902 12.3573 78.7937C12.5451 78.9972 12.819 79.1537 13.1868 79.2476L13.8521 79.4668L26.1312 76.3676L25.7477 79.7329L19.4868 81.0242C18.7042 81.1807 17.9294 81.2981 17.1547 81.3685C16.3799 81.4389 15.5816 81.5329 14.7442 81.6268L14.8303 80.8598C15.6207 81.1416 16.3799 81.4233 17.1155 81.705C17.8512 81.9868 18.579 82.2842 19.299 82.6129L25.106 85.352L24.7303 88.6859L12.0677 82.1433C11.4651 81.8302 10.9564 81.4624 10.5416 81.0476C10.1268 80.6329 9.82944 80.1398 9.64944 79.5842C9.46944 79.0207 9.42249 78.3711 9.50857 77.612C9.55553 77.205 9.61814 76.8215 9.71205 76.4615C9.80597 76.1015 9.89205 75.7963 9.99379 75.5459H9.98597Z" fill="white"/>
<path d="M9.39163 89.1473L15.4647 88.6934L15.5351 89.609C15.7229 89.8516 15.9968 90.0473 16.349 90.196C16.7012 90.3447 17.116 90.4464 17.5934 90.5168C18.0708 90.5873 18.5873 90.6342 19.1429 90.6577C19.7064 90.6812 20.2855 90.6968 20.8881 90.6968L24.8873 90.7203L25.5603 99.7594L16.3334 100.448L16.4664 102.287L10.3934 102.741L10.1664 99.6968L13.6568 99.4386L13.1012 92.0116L9.61076 92.2699L9.37598 89.1473H9.39163ZM15.7699 92.8255L16.1142 97.4351L22.829 96.9342L22.5786 93.6238H21.1073C19.8629 93.6238 18.7986 93.569 17.9299 93.4673C17.0612 93.3655 16.3412 93.1464 15.7699 92.8334V92.8255Z" fill="white"/>
<path d="M17.7573 116.617L16.8651 113.549L23.5799 111.592L23.5564 111.522L15.4642 108.759L14.7051 106.145L26.0607 102.827L26.9529 105.887L20.2694 107.836L20.2929 107.906L28.3459 110.645L29.1207 113.298L17.7651 116.617H17.7573Z" fill="white"/>
<path d="M20.7158 123.097L28.988 118.894L27.2663 115.513L29.5436 114.355L34.4193 123.95L32.1419 125.108L30.4358 121.743L22.1636 125.945L20.7158 123.097Z" fill="white"/>
<path d="M33.4565 128.951L35.6009 131.761C36.227 132.582 36.6339 133.389 36.8061 134.187C36.9783 134.977 36.947 135.713 36.7044 136.394C36.4617 137.075 36.0078 137.662 35.3583 138.162C34.7243 138.648 34.0435 138.922 33.3157 138.976C32.5878 139.031 31.8678 138.875 31.1557 138.491C30.4357 138.108 29.7704 137.513 29.1365 136.683L25.7322 132.215L35.147 125.046L37.08 127.589L29.7 133.216L31.1557 135.126C31.5 135.572 31.8757 135.854 32.2904 135.955C32.7052 136.057 33.0965 135.971 33.4565 135.689C33.8322 135.4 34.0278 135.048 34.0435 134.617C34.0591 134.187 33.9026 133.749 33.5583 133.295L31.4296 130.501L33.4565 128.959V128.951Z" fill="white"/>
<path d="M54.7909 144.634L47.6222 154.049L45.0787 152.116L50.69 144.752L47.27 142.146L41.6587 149.51L39.1074 147.569L46.2761 138.154L54.7831 144.634H54.7909Z" fill="white"/>
<path d="M49.5862 160.505L56.6688 145.808L59.494 147.169L58.6645 148.891L58.7897 148.954C59.0871 148.719 59.4314 148.523 59.8227 148.367C60.214 148.202 60.6601 148.124 61.1532 148.132C61.6462 148.132 62.1784 148.281 62.7497 148.555C63.5636 148.946 64.2053 149.517 64.6592 150.253C65.1132 150.988 65.3479 151.865 65.3479 152.867C65.3479 153.868 65.0584 154.964 64.4871 156.162C63.9236 157.335 63.2506 158.235 62.4758 158.869C61.701 159.503 60.8792 159.879 60.0027 159.988C59.134 160.098 58.2732 159.949 57.4279 159.55C56.8723 159.284 56.4419 158.963 56.1288 158.588C55.8158 158.212 55.6045 157.821 55.4792 157.414C55.354 157.007 55.2914 156.608 55.2836 156.224L55.2053 156.185L52.4506 161.898L49.5706 160.513L49.5862 160.505ZM57.694 156.803C58.1949 157.046 58.6801 157.116 59.1497 157.015C59.6193 156.913 60.0575 156.662 60.4645 156.271C60.8714 155.88 61.2314 155.363 61.5366 154.722C61.8419 154.088 62.0219 153.493 62.0688 152.929C62.1236 152.366 62.0375 151.873 61.8262 151.442C61.6149 151.012 61.2549 150.675 60.754 150.433C60.2688 150.198 59.7836 150.128 59.3062 150.214C58.8288 150.308 58.3827 150.542 57.9758 150.926C57.561 151.309 57.201 151.826 56.8958 152.468C56.5906 153.109 56.4106 153.712 56.3636 154.283C56.3166 154.855 56.4106 155.348 56.6297 155.786C56.8488 156.224 57.201 156.553 57.6862 156.788L57.694 156.803Z" fill="white"/>
<path d="M70.9434 164.34C69.7851 164.051 68.846 163.55 68.1182 162.846C67.3903 162.141 66.913 161.28 66.6782 160.271C66.4434 159.261 66.4669 158.173 66.7643 156.992C67.0616 155.802 67.5547 154.816 68.2356 154.041C68.9164 153.266 69.746 152.734 70.7243 152.453C71.6947 152.171 72.759 152.171 73.9173 152.46C75.0677 152.75 76.0069 153.251 76.7269 153.955C77.4469 154.659 77.9321 155.52 78.1669 156.53C78.4016 157.539 78.3703 158.635 78.073 159.825C77.7756 161.006 77.2903 161.977 76.6016 162.752C75.913 163.526 75.0912 164.059 74.113 164.34C73.1425 164.622 72.0782 164.622 70.9277 164.333L70.9434 164.34ZM71.5617 161.883C72.1017 162.016 72.5947 161.985 73.0408 161.781C73.4869 161.578 73.8703 161.233 74.199 160.764C74.5277 160.286 74.7703 159.715 74.9425 159.034C75.1147 158.346 75.1695 157.719 75.1069 157.156C75.0443 156.585 74.8643 156.107 74.5669 155.716C74.2695 155.325 73.8547 155.059 73.3147 154.926C72.7747 154.793 72.2816 154.824 71.8277 155.027C71.3816 155.231 70.9903 155.567 70.6695 156.045C70.3486 156.514 70.0982 157.093 69.926 157.782C69.7538 158.463 69.699 159.089 69.7616 159.66C69.8243 160.232 69.9964 160.709 70.2938 161.1C70.5912 161.492 71.0138 161.758 71.5617 161.891V161.883Z" fill="white"/>
<path d="M86.0002 166.555C84.795 166.493 83.7698 166.195 82.9168 165.647C82.0715 165.107 81.4298 164.364 80.9994 163.425C80.5689 162.486 80.3889 161.406 80.4516 160.169C80.5142 158.948 80.8037 157.892 81.3203 157C81.8368 156.107 82.5333 155.419 83.4176 154.949C84.302 154.472 85.3116 154.268 86.462 154.323C87.2524 154.362 87.9802 154.527 88.6455 154.816C89.3107 155.106 89.882 155.513 90.3672 156.045C90.8524 156.569 91.2202 157.219 91.4629 157.986C91.7055 158.753 91.8072 159.629 91.7524 160.615L91.7055 161.5L81.6724 160.999L81.7742 158.987L90.2498 159.41L88.7394 159.864C88.7707 159.254 88.7002 158.714 88.5281 158.252C88.3559 157.79 88.0898 157.43 87.7298 157.164C87.3698 156.898 86.9081 156.749 86.3602 156.726C85.8124 156.702 85.335 156.796 84.9359 157.031C84.5368 157.258 84.2237 157.587 84.0046 158.017C83.7776 158.44 83.6524 158.941 83.6211 159.504L83.5507 160.921C83.5194 161.586 83.6055 162.157 83.8089 162.627C84.0124 163.104 84.3176 163.472 84.7246 163.73C85.1316 163.988 85.6089 164.137 86.1646 164.161C86.5402 164.176 86.8924 164.145 87.2055 164.043C87.5185 163.949 87.7924 163.801 88.0194 163.597C88.2463 163.401 88.4263 163.143 88.5594 162.846L91.4394 163.409C91.2202 164.082 90.8524 164.669 90.3515 165.154C89.8507 165.64 89.2246 166.007 88.4811 166.25C87.7455 166.493 86.9081 166.594 85.9846 166.547L86.0002 166.555Z" fill="white"/>
<path d="M95.3925 166.359L93.7568 154.643L96.9186 154.197L97.5838 158.94L98.4838 158.815L101.184 153.602L104.917 153.078L101.505 159.464L106.599 164.786L102.835 165.31L99.1568 161.311L97.936 161.483L98.5542 165.913L95.3925 166.359Z" fill="white"/>
<path d="M112.133 163.072L109.229 154.26L105.629 155.45L104.831 153.023L115.052 149.65L115.85 152.069L112.266 153.25L115.169 162.063L112.133 163.064V163.072Z" fill="white"/>
<path d="M126.259 149.025L124.787 146.356L123.551 149.158L121.719 148.219L123.308 145.597L120.264 145.949L120.17 143.875L123.23 143.922L121.414 141.473L123.136 140.369L124.623 143.03L125.844 140.236L127.683 141.199L126.11 143.813L129.139 143.476L129.233 145.527L126.18 145.472L127.973 147.937L126.251 149.041L126.259 149.025Z" fill="white"/>
<path d="M111.131 86.7744H97.002L106.992 76.7881L102.431 72.2259L92.4403 82.2122V68.0869H85.9951V82.2122L76.0049 72.2259L71.4432 76.7881L81.4335 86.7744H67.3047V93.2255H81.4335L71.4432 103.217L76.0049 107.774L85.9951 97.7877V111.913H92.4403V97.7877L102.431 107.774L106.992 103.217L97.002 93.2255H111.131V86.7744Z" fill="white"/>
</g>
<defs>
<clipPath id="clip0_357_49">
<rect width="160.536" height="153.258" fill="white" transform="translate(9.3916 13.3047)"/>
</clipPath>
</defs>
</svg>
